# Blender v2.91.0 OBJ File: ''
# www.blender.org
mtllib dragon_neck.mtl
o Neck_Cube.013
v -0.317799 -1.107187 0.031454
v -0.336678 -0.682591 -0.050880
v -0.252042 -0.686422 -0.137270
v -0.188250 -1.106161 -0.013050
v -0.149871 -1.029809 0.308063
v -0.158670 -0.714002 0.228251
v -0.299746 -0.689347 0.129837
v -0.306266 -1.076545 0.186223
v -0.199398 -1.176773 -0.196239
v -0.190869 -0.682709 -0.361847
v -0.083622 -0.679322 -0.385863
v -0.088581 -1.161963 -0.234898
v -0.077006 -0.679767 -0.443405
v -0.083885 -1.179858 -0.282413
v -0.000607 -0.686249 -0.474402
v -0.000608 -1.204477 -0.324245
v -0.258046 -1.160221 -0.123375
v -0.259435 -0.689727 -0.256400
v -0.216310 -1.125045 -0.060217
v -0.253065 -0.685678 -0.204419
v -0.241998 -0.689510 -0.179532
v -0.187385 -1.103444 -0.044888
v -0.000607 -1.033752 0.399046
v -0.000607 -0.708643 0.351973
v -0.052859 -0.692668 0.240458
v -0.054303 -1.041000 0.195562
v -0.115218 -0.507861 0.275622
v -0.183894 -0.439706 0.230056
v -0.000607 -0.521278 0.373001
v -0.269298 -0.252717 -0.261556
v -0.268765 -0.287107 -0.303750
v -0.309474 -0.229527 -0.207482
v -0.327472 -0.329257 0.072362
v -0.352779 -0.206426 -0.147654
v -0.283343 -0.297130 -0.347525
v -0.195756 -0.261009 -0.438561
v -0.078694 -0.240059 -0.491872
v -0.000607 -0.243349 -0.515886
v -0.090904 -0.241211 -0.449680
v -0.102190 0.261547 -0.401733
v -0.087051 0.248451 -0.431980
v -0.000609 0.246666 -0.448281
v -0.127716 -0.396946 0.381040
v -0.221587 -0.287035 0.315597
v -0.000607 -0.418748 0.442713
v -0.292046 0.242977 -0.345612
v -0.199852 0.251137 -0.389459
v -0.420765 -0.082336 0.081413
v -0.484049 0.167379 -0.109942
v -0.308996 0.265599 -0.267546
v -0.372643 0.283742 -0.226924
v -0.445228 0.244690 -0.200903
v 0.316586 -1.107185 0.031454
v 0.187037 -1.106161 -0.013050
v 0.250828 -0.686422 -0.137270
v 0.335464 -0.682591 -0.050880
v 0.148657 -1.029809 0.308063
v 0.305052 -1.076545 0.186223
v 0.298533 -0.689347 0.129837
v 0.157457 -0.714002 0.228251
v 0.198185 -1.176773 -0.196239
v 0.087367 -1.161963 -0.234898
v 0.082408 -0.679322 -0.385863
v 0.189656 -0.682709 -0.361847
v 0.082671 -1.179858 -0.282413
v 0.075792 -0.679767 -0.443405
v 0.256832 -1.160221 -0.123375
v 0.258222 -0.689727 -0.256400
v 0.215096 -1.125044 -0.060217
v 0.251851 -0.685678 -0.204419
v 0.186171 -1.103444 -0.044888
v 0.240784 -0.689510 -0.179532
v 0.053090 -1.041000 0.195562
v 0.051645 -0.692668 0.240458
v 0.182681 -0.439706 0.230056
v 0.114004 -0.507861 0.275622
v 0.267551 -0.287107 -0.303750
v 0.268084 -0.252717 -0.261556
v 0.308261 -0.229527 -0.207482
v 0.351565 -0.206426 -0.147654
v 0.326258 -0.329257 0.072362
v 0.194542 -0.261009 -0.438561
v 0.282130 -0.297130 -0.347525
v 0.077480 -0.240059 -0.491872
v 0.089690 -0.241211 -0.449680
v 0.100976 0.261547 -0.401733
v 0.085837 0.248451 -0.431980
v 0.220374 -0.287035 0.315597
v 0.126503 -0.396946 0.381040
v 0.198638 0.251137 -0.389459
v 0.290832 0.242977 -0.345612
v 0.482836 0.167379 -0.109942
v 0.419551 -0.082336 0.081413
v 0.307783 0.265599 -0.267546
v 0.371429 0.283742 -0.226924
v 0.444015 0.244690 -0.200903
v 0.038118 0.123798 -0.047698
v 0.046110 0.126077 -0.042597
v -0.000607 0.121421 -0.070393
v 0.010248 0.121645 -0.068346
v -0.025626 0.121983 -0.063007
v -0.013363 0.123290 -0.064548
v -0.061313 0.111465 -0.027908
v -0.056438 0.121173 -0.039329
v 0.012149 0.123290 -0.064548
v -0.011462 0.121645 -0.068346
v 0.035989 0.120958 -0.057501
v 0.027142 0.054404 0.025528
v 0.015354 0.040602 0.033746
v -0.047323 0.126077 -0.042597
v -0.037203 0.120958 -0.057501
v 0.055224 0.121173 -0.039329
v -0.039331 0.123798 -0.047698
v 0.024412 0.121983 -0.063007
v -0.053366 0.080108 -0.003879
v 0.060099 0.111465 -0.027908
v -0.016568 0.040602 0.033746
v -0.028355 0.054404 0.025528
v -0.000607 0.037865 0.041490
v 0.052153 0.080108 -0.003879
v 0.022844 0.123850 -0.055313
v 0.028818 0.125928 -0.048926
v 0.033457 0.120829 -0.044890
v 0.035781 0.111925 -0.033198
v 0.029524 0.086739 -0.010737
v 0.007400 0.063206 0.013332
v -0.003104 0.046573 0.022132
v 0.008584 0.125293 -0.057891
v 0.013215 0.125246 -0.050593
v 0.011732 0.119286 -0.046436
v 0.011484 0.114110 -0.034887
v 0.007754 0.097218 -0.015384
v -0.010835 0.078092 0.003858
v -0.019178 0.061913 0.012764
v 0.002295 0.122295 -0.064006
v 0.002967 0.124116 -0.058737
v -0.003511 0.120337 -0.056013
v -0.011135 0.115213 -0.046970
v -0.017359 0.107339 -0.031809
v -0.033453 0.098932 -0.021746
v -0.044465 0.088063 -0.016784
vt 0.271500 0.833100
vt 0.273000 0.790900
vt 0.260600 0.792300
vt 0.258900 0.829800
vt 0.307200 0.837800
vt 0.315100 0.798900
vt 0.293200 0.793100
vt 0.286700 0.835600
vt 0.232600 0.824300
vt 0.234500 0.791000
vt 0.226500 0.791800
vt 0.223200 0.818700
vt 0.221800 0.792300
vt 0.218300 0.816200
vt 0.216100 0.793600
vt 0.210700 0.812800
vt 0.240800 0.827000
vt 0.244000 0.792000
vt 0.248400 0.827500
vt 0.249400 0.791900
vt 0.255000 0.792600
vt 0.254100 0.826900
vt 0.344000 0.847300
vt 0.349200 0.801900
vt 0.336100 0.800300
vt 0.327600 0.841400
vt 0.333900 0.766600
vt 0.312300 0.759800
vt 0.352700 0.768300
vt 0.244800 0.756100
vt 0.241600 0.761100
vt 0.249300 0.751500
vt 0.281000 0.750600
vt 0.254100 0.746500
vt 0.237500 0.763500
vt 0.229000 0.764300
vt 0.219500 0.766800
vt 0.215600 0.768500
vt 0.222800 0.765500
vt 0.212000 0.742500
vt 0.209900 0.746400
vt 0.205900 0.749400
vt 0.334200 0.743900
vt 0.311100 0.734000
vt 0.356700 0.749800
vt 0.222400 0.735000
vt 0.217000 0.739200
vt 0.267300 0.723600
vt 0.241800 0.717100
vt 0.225000 0.729200
vt 0.227800 0.723400
vt 0.233200 0.720200
vt 0.271500 0.833100
vt 0.258900 0.829800
vt 0.260600 0.792300
vt 0.273000 0.790900
vt 0.307200 0.837800
vt 0.286700 0.835600
vt 0.293200 0.793100
vt 0.315100 0.798900
vt 0.232600 0.824300
vt 0.223200 0.818700
vt 0.226500 0.791800
vt 0.234500 0.791000
vt 0.218300 0.816200
vt 0.221800 0.792300
vt 0.240800 0.827000
vt 0.244000 0.792000
vt 0.248400 0.827500
vt 0.249400 0.791900
vt 0.254100 0.826900
vt 0.255000 0.792600
vt 0.327600 0.841400
vt 0.336100 0.800300
vt 0.312300 0.759800
vt 0.333900 0.766600
vt 0.241600 0.761100
vt 0.244800 0.756100
vt 0.249300 0.751500
vt 0.254100 0.746500
vt 0.281000 0.750600
vt 0.229000 0.764300
vt 0.237500 0.763500
vt 0.219500 0.766800
vt 0.222800 0.765500
vt 0.212000 0.742500
vt 0.209900 0.746400
vt 0.311100 0.734000
vt 0.334200 0.743900
vt 0.217000 0.739200
vt 0.222400 0.735000
vt 0.241800 0.717100
vt 0.267300 0.723600
vt 0.225000 0.729200
vt 0.227800 0.723400
vt 0.233200 0.720200
vt 0.225000 0.729200
vt 0.227800 0.723400
vt 0.205900 0.749400
vt 0.209900 0.746400
vt 0.217000 0.739200
vt 0.212000 0.742500
vt 0.241800 0.717100
vt 0.233200 0.720200
vt 0.212000 0.742500
vt 0.209900 0.746400
vt 0.222400 0.735000
vt 0.311100 0.734000
vt 0.334200 0.743900
vt 0.227800 0.723400
vt 0.222400 0.735000
vt 0.233200 0.720200
vt 0.225000 0.729200
vt 0.217000 0.739200
vt 0.267300 0.723600
vt 0.241800 0.717100
vt 0.334200 0.743900
vt 0.311100 0.734000
vt 0.356700 0.749800
vt 0.267300 0.723600
vt 0.227800 0.737500
vt 0.235100 0.734300
vt 0.243300 0.732100
vt 0.253500 0.730100
vt 0.271600 0.732600
vt 0.297600 0.737000
vt 0.315600 0.741300
vt 0.222300 0.740300
vt 0.229500 0.737200
vt 0.237500 0.734700
vt 0.246800 0.732100
vt 0.260500 0.732000
vt 0.279100 0.732900
vt 0.294100 0.734100
vt 0.215800 0.743000
vt 0.220100 0.739200
vt 0.225700 0.736000
vt 0.232100 0.732400
vt 0.240100 0.729700
vt 0.250800 0.727700
vt 0.259500 0.726300
vn -0.9028 -0.1442 -0.4052
vn -0.9323 -0.1291 -0.3378
vn -0.8316 -0.2002 -0.5180
vn -0.7815 -0.2424 -0.5749
vn -0.1190 0.1219 0.9854
vn -0.3122 0.0316 0.9495
vn -0.8692 0.0349 0.4933
vn -0.8731 0.0816 0.4807
vn -0.5897 -0.2400 -0.7712
vn -0.5084 -0.2117 -0.8347
vn -0.7418 -0.1508 -0.6535
vn -0.7306 -0.2019 -0.6522
vn -0.7741 -0.1224 -0.6211
vn -0.8055 -0.1662 -0.5688
vn -0.0000 -0.1947 -0.9809
vn -0.0000 -0.2892 -0.9573
vn -0.9874 -0.0633 -0.1452
vn -0.9795 -0.0759 -0.1866
vn -0.8607 0.1018 0.4988
vn -0.9436 0.0421 0.3283
vn -0.9919 -0.0437 0.1195
vn -0.9583 -0.0278 0.2844
vn -0.0000 0.0096 1.0000
vn -0.0000 -0.2174 0.9761
vn -0.5481 -0.1015 0.8302
vn -0.3877 0.0417 0.9209
vn -0.5971 -0.3256 0.7331
vn -0.7365 -0.2557 0.6263
vn -0.0000 -0.5455 0.8381
vn -0.8732 -0.0959 -0.4779
vn -0.9992 -0.0273 0.0287
vn -0.7480 -0.1589 -0.6444
vn -0.9312 -0.2024 0.3030
vn -0.9098 -0.2329 -0.3436
vn -0.9324 -0.0590 -0.3565
vn -0.4134 -0.0491 -0.9092
vn -0.6932 0.0069 -0.7207
vn -0.0000 0.0111 -0.9999
vn -0.6778 -0.0167 -0.7350
vn 0.0778 0.9432 -0.3230
vn -0.4525 0.7312 -0.5105
vn -0.0000 0.8060 -0.5919
vn -0.5639 -0.0320 0.8252
vn -0.5114 0.1783 0.8406
vn -0.0000 -0.0427 0.9991
vn -0.6743 0.6673 -0.3162
vn -0.3044 0.8010 -0.5155
vn -0.8213 0.1622 0.5469
vn -0.8751 0.4018 0.2699
vn -0.2973 0.9060 -0.3013
vn -0.5845 0.8095 -0.0558
vn -0.8199 0.5557 -0.1375
vn 0.9028 -0.1442 -0.4052
vn 0.7815 -0.2424 -0.5749
vn 0.8316 -0.2002 -0.5180
vn 0.9323 -0.1291 -0.3378
vn 0.1190 0.1219 0.9854
vn 0.8731 0.0816 0.4807
vn 0.8692 0.0349 0.4933
vn 0.3122 0.0316 0.9495
vn 0.5897 -0.2400 -0.7712
vn 0.7306 -0.2019 -0.6522
vn 0.7418 -0.1508 -0.6535
vn 0.5084 -0.2117 -0.8347
vn 0.8055 -0.1662 -0.5688
vn 0.7741 -0.1224 -0.6211
vn 0.9874 -0.0633 -0.1452
vn 0.9795 -0.0759 -0.1866
vn 0.8607 0.1018 0.4988
vn 0.9436 0.0421 0.3283
vn 0.9583 -0.0278 0.2844
vn 0.9919 -0.0437 0.1195
vn 0.3877 0.0417 0.9209
vn 0.5481 -0.1015 0.8302
vn 0.7365 -0.2557 0.6263
vn 0.5971 -0.3256 0.7331
vn 0.9992 -0.0273 0.0287
vn 0.8732 -0.0959 -0.4779
vn 0.7480 -0.1589 -0.6444
vn 0.9098 -0.2329 -0.3436
vn 0.9312 -0.2024 0.3030
vn 0.4134 -0.0491 -0.9092
vn 0.9324 -0.0590 -0.3565
vn 0.6932 0.0069 -0.7207
vn 0.6778 -0.0167 -0.7350
vn -0.0778 0.9432 -0.3230
vn 0.4525 0.7312 -0.5105
vn 0.5114 0.1783 0.8406
vn 0.5639 -0.0320 0.8252
vn 0.3044 0.8010 -0.5155
vn 0.6743 0.6673 -0.3162
vn 0.8751 0.4018 0.2699
vn 0.8213 0.1621 0.5469
vn 0.2973 0.9060 -0.3013
vn 0.5845 0.8095 -0.0558
vn 0.8199 0.5557 -0.1375
vn -0.0409 0.9369 -0.3472
vn -0.2507 0.7091 0.6590
vn 0.0000 0.9930 0.1180
vn -0.3527 0.9357 0.0114
vn -0.0062 0.9244 0.3813
vn 0.0726 0.9703 0.2308
vn 0.1426 0.6691 0.7294
vn -0.0239 0.6676 0.7441
vn -0.1113 0.9901 -0.0855
vn 0.3454 0.9384 0.0029
vn -0.1587 0.9865 -0.0396
vn -0.0435 0.6734 0.7380
vn -0.0636 0.6813 0.7292
vn 0.1456 0.8032 0.5777
vn 0.2781 0.9426 0.1851
vn -0.0336 0.7034 0.7100
vn 0.3453 0.8867 0.3074
vn 0.0668 0.9930 0.0976
vn 0.0393 0.7036 0.7095
vn -0.0196 0.6853 0.7280
vn 0.0731 0.7120 0.6984
vn 0.0953 0.7058 0.7020
vn -0.0000 0.7677 0.6409
vn 0.0322 0.6687 0.7428
vn 0.1203 0.9622 -0.2444
vn 0.0588 0.9801 0.1895
vn -0.1657 0.6077 0.7767
vn -0.0542 0.7384 0.6722
vn 0.0153 0.6863 0.7271
vn -0.0460 0.6259 0.7786
vn 0.0048 0.7244 0.6893
vn -0.0788 0.9828 -0.1669
vn -0.1546 0.9148 0.3732
vn -0.1751 0.8061 0.5653
vn -0.0542 0.8245 0.5633
vn 0.0249 0.7265 0.6867
vn -0.0798 0.6317 0.7711
vn 0.0504 0.6695 0.7411
vn -0.0211 0.9703 -0.2410
vn -0.2253 0.9581 0.1770
vn -0.1641 0.8780 0.4496
vn 0.0027 0.9142 0.4053
vn 0.0442 0.8246 0.5640
vn -0.0678 0.6675 0.7415
vn 0.0776 0.6639 0.7438
usemtl Game_dragon
s 1
f 1/1/1 2/2/2 3/3/3 4/4/4
f 5/5/5 6/6/6 7/7/7 8/8/8
f 8/8/8 7/7/7 2/2/2 1/1/1
f 9/9/9 10/10/10 11/11/11 12/12/12
f 12/12/12 11/11/11 13/13/13 14/14/14
f 14/14/14 13/13/13 15/15/15 16/16/16
f 17/17/17 18/18/18 10/10/10 9/9/9
f 19/19/19 20/20/20 18/18/18 17/17/17
f 4/4/4 3/3/3 21/21/21 22/22/22
f 22/22/22 21/21/21 20/20/20 19/19/19
f 23/23/23 24/24/24 25/25/25 26/26/26
f 5/5/5 26/26/26 25/25/25 6/6/6
f 25/25/25 27/27/27 28/28/28 6/6/6
f 24/24/24 29/29/29 27/27/27 25/25/25
f 21/21/21 30/30/30 31/31/31 20/20/20
f 3/3/3 32/32/32 30/30/30 21/21/21
f 7/7/7 33/33/33 34/34/34 2/2/2
f 6/6/6 28/28/28 33/33/33 7/7/7
f 2/2/2 34/34/34 32/32/32 3/3/3
f 10/10/10 18/18/18 35/35/35 36/36/36
f 15/15/15 13/13/13 37/37/37 38/38/38
f 13/13/13 11/11/11 39/39/39 37/37/37
f 11/11/11 10/10/10 36/36/36 39/39/39
f 31/31/31 35/35/35 18/18/18 20/20/20
f 40/40/40 41/41/41 37/37/37 39/39/39
f 38/38/38 37/37/37 41/41/41 42/42/42
f 28/28/28 27/27/27 43/43/43 44/44/44
f 27/27/27 29/29/29 45/45/45 43/43/43
f 36/36/36 35/35/35 46/46/46 47/47/47
f 39/39/39 36/36/36 47/47/47 40/40/40
f 34/34/34 33/33/33 48/48/48 49/49/49
f 33/33/33 28/28/28 44/44/44 48/48/48
f 35/35/35 31/31/31 50/50/50 46/46/46
f 31/31/31 30/30/30 51/51/51 50/50/50
f 30/30/30 32/32/32 52/52/52 51/51/51
f 49/49/49 52/52/52 32/32/32 34/34/34
f 53/53/53 54/54/54 55/55/55 56/56/56
f 57/57/57 58/58/58 59/59/59 60/60/60
f 58/58/58 53/53/53 56/56/56 59/59/59
f 61/61/61 62/62/62 63/63/63 64/64/64
f 62/62/62 65/65/65 66/66/66 63/63/63
f 65/65/65 16/16/16 15/15/15 66/66/66
f 67/67/67 61/61/61 64/64/64 68/68/68
f 69/69/69 67/67/67 68/68/68 70/70/70
f 54/54/54 71/71/71 72/72/72 55/55/55
f 71/71/71 69/69/69 70/70/70 72/72/72
f 23/23/23 73/73/73 74/74/74 24/24/24
f 57/57/57 60/60/60 74/74/74 73/73/73
f 74/74/74 60/60/60 75/75/75 76/76/76
f 24/24/24 74/74/74 76/76/76 29/29/29
f 72/72/72 70/70/70 77/77/77 78/78/78
f 55/55/55 72/72/72 78/78/78 79/79/79
f 59/59/59 56/56/56 80/80/80 81/81/81
f 60/60/60 59/59/59 81/81/81 75/75/75
f 56/56/56 55/55/55 79/79/79 80/80/80
f 64/64/64 82/82/82 83/83/83 68/68/68
f 15/15/15 38/38/38 84/84/84 66/66/66
f 66/66/66 84/84/84 85/85/85 63/63/63
f 63/63/63 85/85/85 82/82/82 64/64/64
f 77/77/77 70/70/70 68/68/68 83/83/83
f 86/86/86 85/85/85 84/84/84 87/87/87
f 38/38/38 42/42/42 87/87/87 84/84/84
f 75/75/75 88/88/88 89/89/89 76/76/76
f 76/76/76 89/89/89 45/45/45 29/29/29
f 82/82/82 90/90/90 91/91/91 83/83/83
f 85/85/85 86/86/86 90/90/90 82/82/82
f 80/80/80 92/92/92 93/93/93 81/81/81
f 81/81/81 93/93/93 88/88/88 75/75/75
f 83/83/83 91/91/91 94/94/94 77/77/77
f 77/77/77 94/94/94 95/95/95 78/78/78
f 78/78/78 95/95/95 96/96/96 79/79/79
f 92/92/92 80/80/80 79/79/79 96/96/96
f 95/95/95 94/94/94 97/97/97 98/98/98
f 87/87/87 42/42/42 99/99/99 100/100/100
f 40/40/40 47/47/47 101/101/101 102/102/102
f 52/52/52 49/49/49 103/103/103 104/104/104
f 86/86/86 87/87/87 100/100/100 105/105/105
f 42/42/42 41/41/41 106/106/106 99/99/99
f 94/94/94 91/91/91 107/107/107 97/97/97
f 89/89/89 88/88/88 108/108/108 109/109/109
f 41/41/41 40/40/40 102/102/102 106/106/106
f 51/51/51 52/52/52 104/104/104 110/110/110
f 47/47/47 46/46/46 111/111/111 101/101/101
f 96/96/96 95/95/95 98/98/98 112/112/112
f 50/50/50 51/51/51 110/110/110 113/113/113
f 91/91/91 90/90/90 114/114/114 107/107/107
f 49/49/49 48/48/48 115/115/115 103/103/103
f 46/46/46 50/50/50 113/113/113 111/111/111
f 92/92/92 96/96/96 112/112/112 116/116/116
f 44/44/44 43/43/43 117/117/117 118/118/118
f 48/48/48 44/44/44 118/118/118 115/115/115
f 43/43/43 45/45/45 119/119/119 117/117/117
f 88/88/88 93/93/93 120/120/120 108/108/108
f 93/93/93 92/92/92 116/116/116 120/120/120
f 45/45/45 89/89/89 109/109/109 119/119/119
f 90/90/90 86/86/86 105/105/105 114/114/114
f 114/114/114 121/121/121 97/97/97 107/107/107
f 121/121/121 122/122/122 98/98/98 97/97/97
f 122/122/122 123/123/123 112/112/112 98/98/98
f 123/123/123 124/124/124 116/116/116 112/112/112
f 124/124/124 125/125/125 120/120/120 116/116/116
f 125/125/125 126/126/126 108/108/108 120/120/120
f 126/126/126 127/127/127 109/109/109 108/108/108
f 127/127/127 117/117/117 119/119/119 109/109/109
f 105/105/105 128/128/128 121/121/121 114/114/114
f 128/128/128 129/129/129 122/122/122 121/121/121
f 129/129/129 130/130/130 123/123/123 122/122/122
f 130/130/130 131/131/131 124/124/124 123/123/123
f 131/131/131 132/132/132 125/125/125 124/124/124
f 132/132/132 133/133/133 126/126/126 125/125/125
f 133/133/133 134/134/134 127/127/127 126/126/126
f 134/134/134 118/118/118 117/117/117 127/127/127
f 100/100/100 135/135/135 128/128/128 105/105/105
f 135/135/135 136/136/136 129/129/129 128/128/128
f 136/136/136 137/137/137 130/130/130 129/129/129
f 137/137/137 138/138/138 131/131/131 130/130/130
f 138/138/138 139/139/139 132/132/132 131/131/131
f 139/139/139 140/140/140 133/133/133 132/132/132
f 140/140/140 141/141/141 134/134/134 133/133/133
f 141/141/141 115/115/115 118/118/118 134/134/134
f 99/99/99 106/106/106 135/135/135 100/100/100
f 106/106/106 102/102/102 136/136/136 135/135/135
f 102/102/102 101/101/101 137/137/137 136/136/136
f 101/101/101 111/111/111 138/138/138 137/137/137
f 111/111/111 113/113/113 139/139/139 138/138/138
f 113/113/113 110/110/110 140/140/140 139/139/139
f 110/110/110 104/104/104 141/141/141 140/140/140
f 104/104/104 103/103/103 115/115/115 141/141/141
