# Blender v2.77 (sub 0) OBJ File: ''
# www.blender.org
mtllib orb_cloudy.mtl
o Sphere_Sphere.002
v -0.129410 0.482963 0.000000
v -0.250000 0.433013 0.000000
v -0.353553 0.353553 0.000000
v -0.433013 0.250000 0.000000
v -0.482963 0.129410 0.000000
v -0.500000 0.000000 0.000000
v -0.482963 -0.129409 0.000000
v -0.433013 -0.250000 0.000000
v -0.353553 -0.353553 0.000000
v -0.250000 -0.433013 0.000000
v -0.129410 -0.482963 0.000000
v -0.119559 0.482963 -0.049523
v -0.230970 0.433013 -0.095671
v -0.326641 0.353553 -0.135299
v -0.400052 0.250000 -0.165707
v -0.446200 0.129410 -0.184822
v -0.461940 0.000000 -0.191342
v -0.446200 -0.129409 -0.184822
v -0.400052 -0.250000 -0.165707
v -0.326641 -0.353553 -0.135299
v -0.230970 -0.433013 -0.095671
v -0.119559 -0.482963 -0.049523
v -0.091506 0.482963 -0.091506
v -0.176777 0.433013 -0.176777
v -0.250000 0.353553 -0.250000
v -0.306186 0.250000 -0.306186
v -0.341506 0.129410 -0.341506
v -0.353553 0.000000 -0.353553
v -0.341506 -0.129409 -0.341506
v -0.306186 -0.250000 -0.306186
v -0.250000 -0.353553 -0.250000
v -0.176777 -0.433013 -0.176777
v -0.091507 -0.482963 -0.091506
v -0.049523 0.482963 -0.119559
v -0.095671 0.433013 -0.230970
v -0.135299 0.353553 -0.326641
v -0.165707 0.250000 -0.400051
v -0.184822 0.129410 -0.446199
v -0.191342 0.000000 -0.461940
v -0.184822 -0.129409 -0.446199
v -0.165707 -0.250000 -0.400051
v -0.135299 -0.353553 -0.326641
v -0.095671 -0.433013 -0.230970
v -0.049523 -0.482963 -0.119559
v -0.000000 0.482963 -0.129409
v -0.000000 0.433013 -0.250000
v -0.000000 0.353553 -0.353553
v -0.000000 0.250000 -0.433012
v -0.000000 0.129410 -0.482963
v -0.000000 0.000000 -0.500000
v -0.000000 -0.129409 -0.482963
v -0.000000 -0.250000 -0.433012
v -0.000000 -0.353553 -0.353553
v -0.000000 -0.433013 -0.250000
v -0.000000 -0.482963 -0.129409
v 0.049523 0.482963 -0.119559
v 0.095671 0.433013 -0.230970
v 0.135299 0.353553 -0.326640
v 0.165707 0.250000 -0.400051
v 0.184822 0.129410 -0.446199
v 0.191341 0.000000 -0.461939
v 0.184822 -0.129409 -0.446199
v 0.165707 -0.250000 -0.400051
v 0.135299 -0.353553 -0.326641
v 0.095671 -0.433013 -0.230970
v 0.049523 -0.482963 -0.119559
v -0.000000 0.500000 0.000000
v 0.091506 0.482963 -0.091506
v 0.176776 0.433013 -0.176777
v 0.250000 0.353553 -0.250000
v 0.306186 0.250000 -0.306186
v 0.341506 0.129410 -0.341506
v 0.353553 0.000000 -0.353553
v 0.341506 -0.129409 -0.341506
v 0.306186 -0.250000 -0.306186
v 0.250000 -0.353553 -0.250000
v 0.176776 -0.433013 -0.176777
v 0.091506 -0.482963 -0.091506
v -0.000000 -0.500000 0.000000
v 0.119558 0.482963 -0.049523
v 0.230970 0.433013 -0.095671
v 0.326640 0.353553 -0.135299
v 0.400051 0.250000 -0.165707
v 0.446199 0.129410 -0.184822
v 0.461939 0.000000 -0.191341
v 0.446199 -0.129409 -0.184822
v 0.400051 -0.250000 -0.165707
v 0.326640 -0.353553 -0.135299
v 0.230970 -0.433013 -0.095671
v 0.119559 -0.482963 -0.049523
v 0.129409 0.482963 0.000000
v 0.250000 0.433013 0.000000
v 0.353553 0.353553 0.000000
v 0.433012 0.250000 0.000000
v 0.482962 0.129410 0.000000
v 0.499999 0.000000 0.000000
v 0.482962 -0.129409 0.000000
v 0.433012 -0.250000 0.000000
v 0.353553 -0.353553 0.000000
v 0.250000 -0.433013 0.000000
v 0.129409 -0.482963 0.000000
v 0.119558 0.482963 0.049523
v 0.230969 0.433013 0.095671
v 0.326640 0.353553 0.135299
v 0.400051 0.250000 0.165707
v 0.446199 0.129410 0.184822
v 0.461939 0.000000 0.191342
v 0.446199 -0.129409 0.184822
v 0.400051 -0.250000 0.165707
v 0.326640 -0.353553 0.135299
v 0.230970 -0.433013 0.095671
v 0.119559 -0.482963 0.049523
v 0.091506 0.482963 0.091506
v 0.176776 0.433013 0.176777
v 0.250000 0.353553 0.250000
v 0.306186 0.250000 0.306186
v 0.341506 0.129410 0.341506
v 0.353553 0.000000 0.353553
v 0.341506 -0.129409 0.341506
v 0.306186 -0.250000 0.306186
v 0.250000 -0.353553 0.250000
v 0.176776 -0.433013 0.176777
v 0.091506 -0.482963 0.091506
v 0.049523 0.482963 0.119559
v 0.095670 0.433013 0.230970
v 0.135299 0.353553 0.326641
v 0.165706 0.250000 0.400051
v 0.184821 0.129410 0.446199
v 0.191341 0.000000 0.461940
v 0.184821 -0.129409 0.446199
v 0.165706 -0.250000 0.400051
v 0.135299 -0.353553 0.326641
v 0.095671 -0.433013 0.230970
v 0.049523 -0.482963 0.119559
v -0.000000 0.482963 0.129409
v -0.000000 0.433013 0.250000
v -0.000000 0.353553 0.353553
v -0.000000 0.250000 0.433012
v -0.000000 0.129410 0.482963
v -0.000000 0.000000 0.500000
v -0.000000 -0.129409 0.482963
v -0.000000 -0.250000 0.433013
v -0.000000 -0.353553 0.353553
v -0.000000 -0.433013 0.250000
v -0.000000 -0.482963 0.129409
v -0.049523 0.482963 0.119559
v -0.095671 0.433013 0.230970
v -0.135299 0.353553 0.326640
v -0.165707 0.250000 0.400051
v -0.184822 0.129410 0.446199
v -0.191342 0.000000 0.461939
v -0.184822 -0.129409 0.446199
v -0.165707 -0.250000 0.400051
v -0.135299 -0.353553 0.326641
v -0.095671 -0.433013 0.230970
v -0.049523 -0.482963 0.119559
v -0.091506 0.482963 0.091506
v -0.176777 0.433013 0.176776
v -0.250000 0.353553 0.250000
v -0.306186 0.250000 0.306186
v -0.341507 0.129410 0.341506
v -0.353554 0.000000 0.353553
v -0.341507 -0.129409 0.341506
v -0.306186 -0.250000 0.306186
v -0.250000 -0.353553 0.250000
v -0.176777 -0.433013 0.176777
v -0.091507 -0.482963 0.091506
v -0.119559 0.482963 0.049523
v -0.230970 0.433013 0.095671
v -0.326641 0.353553 0.135299
v -0.400052 0.250000 0.165706
v -0.446200 0.129410 0.184822
v -0.461940 0.000000 0.191341
v -0.446200 -0.129409 0.184822
v -0.400052 -0.250000 0.165706
v -0.326641 -0.353553 0.135299
v -0.230970 -0.433013 0.095671
v -0.119559 -0.482963 0.049523
vt 0.5000 0.3224
vt 0.5000 0.5000
vt 0.7626 0.5000
vt 0.7536 0.3224
vt 0.5000 0.8431
vt 0.5000 0.9852
vt 0.6857 0.9852
vt 0.7274 0.8431
vt 0.3224 0.5000
vt 0.1569 0.5000
vt 0.1831 0.6313
vt 0.3359 0.5680
vt 0.3224 0.5000
vt 0.5000 0.5000
vt 0.3359 0.5680
vt 0.5000 0.1569
vt 0.7274 0.1569
vt 0.5000 0.6776
vt 0.7536 0.6776
vt 0.5000 0.5000
vt 0.1569 0.5000
vt 0.1831 0.6313
vt 0.5000 0.0148
vt 0.6857 0.0148
vt 0.0148 0.5000
vt 0.0518 0.6857
vt 0.0148 0.5000
vt 0.0518 0.6857
vt 0.3744 0.6256
vt 0.3744 0.6256
vt 0.2574 0.7426
vt 0.9202 0.1569
vt 0.8431 0.0148
vt 0.9686 0.6776
vt 0.9852 0.5000
vt 0.1569 0.8431
vt 0.1569 0.8431
vt 0.2574 0.7426
vt 0.9686 0.3224
vt 0.8431 0.9852
vt 0.9202 0.8431
vt 0.0798 0.8431
vt 0.1569 0.9852
vt 0.3143 0.9852
vt 0.2726 0.8431
vt 0.3687 0.8169
vt 0.4320 0.6641
vt 0.4320 0.6641
vt 0.0798 0.1569
vt 0.0314 0.3224
vt 0.2464 0.3224
vt 0.2726 0.1569
vt 0.0314 0.6776
vt 0.2464 0.6776
vt 0.3687 0.8169
vt 0.1569 0.0148
vt 0.3143 0.0148
vt 0.0148 0.5000
vt 0.2374 0.5000
vt 0.3143 0.9482
vt 0.3143 0.9482
vt 0.5000 0.8431
vt 0.5000 0.9852
vt 0.5000 0.9852
vt 0.5000 0.8431
vt 0.5000 0.5000
vt 0.5000 0.3224
vt 0.5000 0.8431
vt 0.5000 0.6776
vt 0.5000 0.6776
vt 0.5000 0.1569
vt 0.5000 0.6776
vt 0.5000 0.0148
vt 0.7274 0.8431
vt 0.7536 0.6776
vt 0.5680 0.6641
vt 0.5680 0.6641
vt 0.6313 0.8169
vt 0.7274 0.1569
vt 0.6857 0.0148
vt 0.7626 0.5000
vt 0.6857 0.9482
vt 0.6857 0.9482
vt 0.6313 0.8169
vt 0.7536 0.3224
vt 0.6857 0.9852
vt 0.8431 0.9852
vt 0.9202 0.8431
vt 0.7426 0.7426
vt 0.6256 0.6256
vt 0.6256 0.6256
vt 0.9686 0.3224
vt 0.9202 0.1569
vt 0.9686 0.6776
vt 0.7426 0.7426
vt 0.8431 0.0148
vt 0.9852 0.5000
vt 0.8431 0.8431
vt 0.8431 0.8431
vt 0.7536 0.6776
vt 0.7626 0.5000
vt 0.8169 0.6313
vt 0.9482 0.6857
vt 0.9482 0.6857
vt 0.8169 0.6313
vt 0.7536 0.3224
vt 0.6857 0.9852
vt 0.7274 0.8431
vt 0.6641 0.5680
vt 0.6641 0.5680
vt 0.7274 0.1569
vt 0.6857 0.0148
vt 0.5000 0.8431
vt 0.5000 0.6776
vt 0.6776 0.5000
vt 0.6776 0.5000
vt 0.8431 0.5000
vt 0.5000 0.1569
vt 0.5000 0.0148
vt 0.5000 0.5000
vt 0.9852 0.5000
vt 0.9852 0.5000
vt 0.8431 0.5000
vt 0.5000 0.3224
vt 0.5000 0.9852
vt 0.2374 0.5000
vt 0.2464 0.3224
vt 0.3143 0.9852
vt 0.2726 0.8431
vt 0.8169 0.3687
vt 0.6641 0.4320
vt 0.6641 0.4320
vt 0.2726 0.1569
vt 0.2464 0.6776
vt 0.8169 0.3687
vt 0.3143 0.0148
vt 0.9482 0.3143
vt 0.9482 0.3143
vt 0.0314 0.6776
vt 0.0148 0.5000
vt 0.7426 0.2574
vt 0.8431 0.1569
vt 0.8431 0.1569
vt 0.7426 0.2574
vt 0.0314 0.3224
vt 0.1569 0.9852
vt 0.0798 0.8431
vt 0.6256 0.3744
vt 0.6256 0.3744
vt 0.0798 0.1569
vt 0.1569 0.0148
vt 0.9202 0.1569
vt 0.9686 0.3224
vt 0.7536 0.3224
vt 0.7274 0.1569
vt 0.9686 0.6776
vt 0.9202 0.8431
vt 0.7274 0.8431
vt 0.7536 0.6776
vt 0.5680 0.3359
vt 0.5680 0.3359
vt 0.6313 0.1831
vt 0.8431 0.0148
vt 0.6857 0.0148
vt 0.9852 0.5000
vt 0.7626 0.5000
vt 0.6857 0.0518
vt 0.6857 0.0518
vt 0.6313 0.1831
vt 0.8431 0.9852
vt 0.6857 0.9852
vt 0.5000 0.5000
vt 0.5000 0.3224
vt 0.5000 0.9852
vt 0.5000 0.8431
vt 0.5000 0.1569
vt 0.5000 0.3224
vt 0.5000 0.3224
vt 0.5000 0.1569
vt 0.5000 0.6776
vt 0.5000 0.1569
vt 0.5000 0.0148
vt 0.5000 0.0148
vt 0.2726 0.1569
vt 0.3143 0.0148
vt 0.2464 0.6776
vt 0.2374 0.5000
vt 0.3687 0.1831
vt 0.3143 0.0518
vt 0.3143 0.0518
vt 0.3687 0.1831
vt 0.2464 0.3224
vt 0.3143 0.9852
vt 0.2726 0.8431
vt 0.4320 0.3359
vt 0.4320 0.3359
vt 0.3744 0.3744
vt 0.0314 0.3224
vt 0.0798 0.1569
vt 0.0798 0.8431
vt 0.0314 0.6776
vt 0.3744 0.3744
vt 0.2574 0.2574
vt 0.1569 0.0148
vt 0.0148 0.5000
vt 0.1569 0.1569
vt 0.1569 0.1569
vt 0.2574 0.2574
vt 0.1569 0.9852
vt 0.0518 0.3143
vt 0.1831 0.3687
vt 0.2374 0.5000
vt 0.2464 0.3224
vt 0.3143 0.9852
vt 0.2726 0.8431
vt 0.3359 0.4320
vt 0.3359 0.4320
vt 0.2726 0.1569
vt 0.2464 0.6776
vt 0.1831 0.3687
vt 0.3143 0.0148
vt 0.0518 0.3143
vn -0.9727 -0.1281 -0.1935
vn -0.7837 0.6013 -0.1559
vn -0.3816 -0.9212 -0.0759
vn -0.1305 0.9911 -0.0260
vn -0.9087 -0.3764 -0.1807
vn -0.9087 0.3764 -0.1807
vn -0.1305 -0.9911 -0.0260
vn -0.3816 0.9212 -0.0759
vn -0.7837 -0.6013 -0.1559
vn -0.9727 0.1281 -0.1935
vn -0.6043 0.7876 -0.1202
vn -0.6043 -0.7876 -0.1202
vn -0.1106 -0.9911 -0.0739
vn -0.3235 0.9212 -0.2161
vn -0.6644 -0.6013 -0.4439
vn -0.8246 0.1281 -0.5510
vn -0.5123 0.7876 -0.3423
vn -0.5123 -0.7876 -0.3423
vn -0.8246 -0.1281 -0.5510
vn -0.6644 0.6013 -0.4439
vn -0.3235 -0.9212 -0.2161
vn -0.1106 0.9911 -0.0739
vn -0.7703 -0.3764 -0.5147
vn -0.7703 0.3764 -0.5147
vn -0.4439 0.6013 -0.6644
vn -0.2161 -0.9212 -0.3235
vn -0.0739 0.9911 -0.1106
vn -0.5147 -0.3764 -0.7703
vn -0.5147 0.3764 -0.7703
vn -0.0739 -0.9911 -0.1106
vn -0.2161 0.9212 -0.3235
vn -0.4439 -0.6013 -0.6644
vn -0.5510 0.1281 -0.8246
vn -0.3423 0.7876 -0.5123
vn -0.3423 -0.7876 -0.5123
vn -0.5510 -0.1281 -0.8246
vn -0.1202 0.7876 -0.6043
vn -0.1202 -0.7876 -0.6043
vn -0.1935 -0.1281 -0.9727
vn -0.1559 0.6013 -0.7837
vn -0.0759 -0.9212 -0.3816
vn -0.0260 0.9911 -0.1305
vn -0.1807 -0.3764 -0.9087
vn -0.1807 0.3764 -0.9087
vn -0.0260 -0.9911 -0.1305
vn -0.0759 0.9212 -0.3816
vn -0.1559 -0.6013 -0.7837
vn -0.1935 0.1281 -0.9727
vn 0.1807 0.3764 -0.9087
vn 0.0260 -0.9911 -0.1305
vn 0.0759 0.9212 -0.3816
vn 0.1559 -0.6013 -0.7837
vn 0.1935 0.1281 -0.9727
vn 0.1202 0.7876 -0.6043
vn 0.1202 -0.7876 -0.6043
vn 0.1935 -0.1281 -0.9727
vn 0.1559 0.6013 -0.7837
vn 0.0759 -0.9212 -0.3816
vn 0.0260 0.9911 -0.1305
vn 0.1807 -0.3764 -0.9087
vn 0.4439 0.6013 -0.6644
vn 0.2161 -0.9212 -0.3235
vn 0.0739 0.9911 -0.1106
vn 0.5147 -0.3764 -0.7703
vn 0.5147 0.3764 -0.7703
vn 0.0739 -0.9911 -0.1106
vn 0.2161 0.9212 -0.3235
vn 0.4439 -0.6013 -0.6644
vn 0.5510 0.1281 -0.8246
vn 0.3423 0.7876 -0.5123
vn 0.3423 -0.7876 -0.5123
vn 0.5510 -0.1281 -0.8246
vn 0.8246 0.1281 -0.5510
vn 0.5123 0.7876 -0.3423
vn 0.5123 -0.7876 -0.3423
vn 0.8246 -0.1281 -0.5510
vn 0.6644 0.6013 -0.4439
vn 0.3235 -0.9212 -0.2161
vn 0.1106 0.9911 -0.0739
vn 0.7703 -0.3764 -0.5147
vn 0.7703 0.3764 -0.5147
vn 0.1106 -0.9911 -0.0739
vn 0.3235 0.9212 -0.2161
vn 0.6644 -0.6013 -0.4439
vn 0.9087 0.3764 -0.1807
vn 0.1305 -0.9911 -0.0260
vn 0.3816 0.9212 -0.0759
vn 0.7837 -0.6013 -0.1559
vn 0.9727 0.1281 -0.1935
vn 0.6043 0.7876 -0.1202
vn 0.6043 -0.7876 -0.1202
vn 0.9727 -0.1281 -0.1935
vn 0.7837 0.6013 -0.1559
vn 0.3816 -0.9212 -0.0759
vn 0.1305 0.9911 -0.0260
vn 0.9087 -0.3764 -0.1807
vn 0.9727 -0.1281 0.1935
vn 0.7837 0.6013 0.1559
vn 0.3816 -0.9212 0.0759
vn 0.1305 0.9911 0.0260
vn 0.9087 -0.3764 0.1807
vn 0.9087 0.3764 0.1807
vn 0.1305 -0.9911 0.0260
vn 0.3816 0.9212 0.0759
vn 0.7837 -0.6013 0.1559
vn 0.9727 0.1281 0.1935
vn 0.6043 0.7876 0.1202
vn 0.6043 -0.7876 0.1202
vn 0.8246 0.1281 0.5510
vn 0.5123 0.7876 0.3423
vn 0.5123 -0.7876 0.3423
vn 0.8246 -0.1281 0.5510
vn 0.6644 0.6013 0.4439
vn 0.3235 -0.9212 0.2161
vn 0.1106 0.9911 0.0739
vn 0.7703 -0.3764 0.5147
vn 0.7703 0.3764 0.5147
vn 0.1106 -0.9911 0.0739
vn 0.3235 0.9212 0.2161
vn 0.6644 -0.6013 0.4439
vn 0.5147 -0.3764 0.7703
vn 0.5147 0.3764 0.7703
vn 0.0739 -0.9911 0.1106
vn 0.2161 0.9212 0.3235
vn 0.4439 -0.6013 0.6644
vn 0.5510 0.1281 0.8246
vn 0.3423 0.7876 0.5123
vn 0.3423 -0.7876 0.5123
vn 0.5510 -0.1281 0.8246
vn 0.4439 0.6013 0.6644
vn 0.2161 -0.9212 0.3235
vn 0.0739 0.9911 0.1106
vn 0.1935 -0.1281 0.9727
vn 0.1559 0.6013 0.7837
vn 0.0759 -0.9212 0.3816
vn 0.0260 0.9911 0.1305
vn 0.1807 -0.3764 0.9087
vn 0.1807 0.3764 0.9087
vn 0.0260 -0.9911 0.1305
vn 0.0759 0.9212 0.3816
vn 0.1559 -0.6013 0.7837
vn 0.1935 0.1281 0.9727
vn 0.1202 0.7876 0.6043
vn 0.1202 -0.7876 0.6043
vn -0.1559 -0.6013 0.7837
vn -0.1935 0.1281 0.9727
vn -0.1202 0.7876 0.6043
vn -0.1202 -0.7876 0.6043
vn -0.1935 -0.1281 0.9727
vn -0.1559 0.6013 0.7837
vn -0.0759 -0.9212 0.3816
vn -0.0260 0.9911 0.1305
vn -0.1807 -0.3764 0.9087
vn -0.1807 0.3764 0.9087
vn -0.0260 -0.9911 0.1305
vn -0.0759 0.9212 0.3816
vn -0.0739 0.9911 0.1106
vn -0.5147 -0.3764 0.7703
vn -0.5147 0.3764 0.7703
vn -0.0739 -0.9911 0.1106
vn -0.2161 0.9212 0.3235
vn -0.4439 -0.6013 0.6644
vn -0.5510 0.1281 0.8246
vn -0.3423 0.7876 0.5123
vn -0.3423 -0.7876 0.5123
vn -0.5510 -0.1281 0.8246
vn -0.4439 0.6013 0.6644
vn -0.2161 -0.9212 0.3235
vn -0.5123 -0.7876 0.3423
vn -0.8246 -0.1281 0.5510
vn -0.6644 0.6013 0.4439
vn -0.3235 -0.9212 0.2161
vn -0.1106 0.9911 0.0739
vn -0.7703 -0.3764 0.5147
vn -0.7703 0.3764 0.5147
vn -0.1106 -0.9911 0.0739
vn -0.3235 0.9212 0.2161
vn -0.6644 -0.6013 0.4439
vn -0.8246 0.1281 0.5510
vn -0.5123 0.7876 0.3423
vn -0.3816 0.9212 0.0759
vn -0.7837 -0.6013 0.1559
vn -0.9727 0.1281 0.1935
vn -0.6043 0.7876 0.1202
vn -0.6043 -0.7876 0.1202
vn -0.9727 -0.1281 0.1935
vn -0.7837 0.6013 0.1559
vn -0.3816 -0.9212 0.0759
vn -0.1305 0.9911 0.0260
vn -0.9087 -0.3764 0.1807
vn -0.9087 0.3764 0.1807
vn -0.1305 -0.9911 0.0260
usemtl Material.001
s off
f 7/1/1 6/2/1 17/3/1 18/4/1
f 4/5/2 3/6/2 14/7/2 15/8/2
f 11/9/3 10/10/3 21/11/3 22/12/3
f 1/13/4 67/14/4 12/15/4
f 8/16/5 7/1/5 18/4/5 19/17/5
f 5/18/6 4/5/6 15/8/6 16/19/6
f 79/20/7 11/9/7 22/12/7
f 2/21/8 1/13/8 12/15/8 13/22/8
f 9/23/9 8/16/9 19/17/9 20/24/9
f 6/2/10 5/18/10 16/19/10 17/3/10
f 3/25/11 2/21/11 13/22/11 14/26/11
f 10/10/12 9/27/12 20/28/12 21/11/12
f 79/20/13 22/12/13 33/29/13
f 13/22/14 12/15/14 23/30/14 24/31/14
f 20/24/15 19/17/15 30/32/15 31/33/15
f 17/3/16 16/19/16 27/34/16 28/35/16
f 14/26/17 13/22/17 24/31/17 25/36/17
f 21/11/18 20/28/18 31/37/18 32/38/18
f 18/4/19 17/3/19 28/35/19 29/39/19
f 15/8/20 14/7/20 25/40/20 26/41/20
f 22/12/21 21/11/21 32/38/21 33/29/21
f 12/15/22 67/14/22 23/30/22
f 19/17/23 18/4/23 29/39/23 30/32/23
f 16/19/24 15/8/24 26/41/24 27/34/24
f 26/42/25 25/43/25 36/44/25 37/45/25
f 33/29/26 32/38/26 43/46/26 44/47/26
f 23/30/27 67/14/27 34/48/27
f 30/49/28 29/50/28 40/51/28 41/52/28
f 27/53/29 26/42/29 37/45/29 38/54/29
f 79/20/30 33/29/30 44/47/30
f 24/31/31 23/30/31 34/48/31 35/55/31
f 31/56/32 30/49/32 41/52/32 42/57/32
f 28/58/33 27/53/33 38/54/33 39/59/33
f 25/36/34 24/31/34 35/55/34 36/60/34
f 32/38/35 31/37/35 42/61/35 43/46/35
f 29/50/36 28/58/36 39/59/36 40/51/36
f 36/60/37 35/55/37 46/62/37 47/63/37
f 43/46/38 42/61/38 53/64/38 54/65/38
f 40/51/39 39/59/39 50/66/39 51/67/39
f 37/45/40 36/44/40 47/63/40 48/68/40
f 44/47/41 43/46/41 54/65/41 55/69/41
f 34/48/42 67/14/42 45/70/42
f 41/52/43 40/51/43 51/67/43 52/71/43
f 38/54/44 37/45/44 48/68/44 49/72/44
f 79/20/45 44/47/45 55/69/45
f 35/55/46 34/48/46 45/70/46 46/62/46
f 42/57/47 41/52/47 52/71/47 53/73/47
f 39/59/48 38/54/48 49/72/48 50/66/48
f 49/72/49 48/68/49 59/74/49 60/75/49
f 79/20/50 55/69/50 66/76/50
f 46/62/51 45/70/51 56/77/51 57/78/51
f 53/73/52 52/71/52 63/79/52 64/80/52
f 50/66/53 49/72/53 60/75/53 61/81/53
f 47/63/54 46/62/54 57/78/54 58/82/54
f 54/65/55 53/64/55 64/83/55 65/84/55
f 51/67/56 50/66/56 61/81/56 62/85/56
f 48/68/57 47/63/57 58/86/57 59/74/57
f 55/69/58 54/65/58 65/84/58 66/76/58
f 45/70/59 67/14/59 56/77/59
f 52/71/60 51/67/60 62/85/60 63/79/60
f 59/74/61 58/86/61 70/87/61 71/88/61
f 66/76/62 65/84/62 77/89/62 78/90/62
f 56/77/63 67/14/63 68/91/63
f 63/79/64 62/85/64 74/92/64 75/93/64
f 60/75/65 59/74/65 71/88/65 72/94/65
f 79/20/66 66/76/66 78/90/66
f 57/78/67 56/77/67 68/91/67 69/95/67
f 64/80/68 63/79/68 75/93/68 76/96/68
f 61/81/69 60/75/69 72/94/69 73/97/69
f 58/82/70 57/78/70 69/95/70 70/98/70
f 65/84/71 64/83/71 76/99/71 77/89/71
f 62/85/72 61/81/72 73/97/72 74/92/72
f 73/97/73 72/94/73 84/100/73 85/101/73
f 70/98/74 69/95/74 81/102/74 82/103/74
f 77/89/75 76/99/75 88/104/75 89/105/75
f 74/92/76 73/97/76 85/101/76 86/106/76
f 71/88/77 70/87/77 82/107/77 83/108/77
f 78/90/78 77/89/78 89/105/78 90/109/78
f 68/91/79 67/14/79 80/110/79
f 75/93/80 74/92/80 86/106/80 87/111/80
f 72/94/81 71/88/81 83/108/81 84/100/81
f 79/20/82 78/90/82 90/109/82
f 69/95/83 68/91/83 80/110/83 81/102/83
f 76/96/84 75/93/84 87/111/84 88/112/84
f 84/100/85 83/108/85 94/113/85 95/114/85
f 79/20/86 90/109/86 101/115/86
f 81/102/87 80/110/87 91/116/87 92/117/87
f 88/112/88 87/111/88 98/118/88 99/119/88
f 85/101/89 84/100/89 95/114/89 96/120/89
f 82/103/90 81/102/90 92/117/90 93/121/90
f 89/105/91 88/104/91 99/122/91 100/123/91
f 86/106/92 85/101/92 96/120/92 97/124/92
f 83/108/93 82/107/93 93/125/93 94/113/93
f 90/109/94 89/105/94 100/123/94 101/115/94
f 80/110/95 67/14/95 91/116/95
f 87/111/96 86/106/96 97/124/96 98/118/96
f 97/124/97 96/120/97 107/126/97 108/127/97
f 94/113/98 93/125/98 104/128/98 105/129/98
f 101/115/99 100/123/99 111/130/99 112/131/99
f 91/116/100 67/14/100 102/132/100
f 98/118/101 97/124/101 108/127/101 109/133/101
f 95/114/102 94/113/102 105/129/102 106/134/102
f 79/20/103 101/115/103 112/131/103
f 92/117/104 91/116/104 102/132/104 103/135/104
f 99/119/105 98/118/105 109/133/105 110/136/105
f 96/120/106 95/114/106 106/134/106 107/126/106
f 93/121/107 92/117/107 103/135/107 104/137/107
f 100/123/108 99/122/108 110/138/108 111/130/108
f 107/126/109 106/134/109 117/139/109 118/140/109
f 104/137/110 103/135/110 114/141/110 115/142/110
f 111/130/111 110/138/111 121/143/111 122/144/111
f 108/127/112 107/126/112 118/140/112 119/145/112
f 105/129/113 104/128/113 115/146/113 116/147/113
f 112/131/114 111/130/114 122/144/114 123/148/114
f 102/132/115 67/14/115 113/149/115
f 109/133/116 108/127/116 119/145/116 120/150/116
f 106/134/117 105/129/117 116/147/117 117/139/117
f 79/20/118 112/131/118 123/148/118
f 103/135/119 102/132/119 113/149/119 114/141/119
f 110/136/120 109/133/120 120/150/120 121/151/120
f 120/152/121 119/153/121 130/154/121 131/155/121
f 117/156/122 116/157/122 127/158/122 128/159/122
f 79/20/123 123/148/123 134/160/123
f 114/141/124 113/149/124 124/161/124 125/162/124
f 121/163/125 120/152/125 131/155/125 132/164/125
f 118/165/126 117/156/126 128/159/126 129/166/126
f 115/142/127 114/141/127 125/162/127 126/167/127
f 122/144/128 121/143/128 132/168/128 133/169/128
f 119/153/129 118/165/129 129/166/129 130/154/129
f 116/157/130 115/170/130 126/171/130 127/158/130
f 123/148/131 122/144/131 133/169/131 134/160/131
f 113/149/132 67/14/132 124/161/132
f 130/154/133 129/166/133 140/172/133 141/173/133
f 127/158/134 126/171/134 137/174/134 138/175/134
f 134/160/135 133/169/135 144/176/135 145/177/135
f 124/161/136 67/14/136 135/178/136
f 131/155/137 130/154/137 141/173/137 142/179/137
f 128/159/138 127/158/138 138/175/138 139/180/138
f 79/20/139 134/160/139 145/177/139
f 125/162/140 124/161/140 135/178/140 136/181/140
f 132/164/141 131/155/141 142/179/141 143/182/141
f 129/166/142 128/159/142 139/180/142 140/172/142
f 126/167/143 125/162/143 136/181/143 137/183/143
f 133/169/144 132/168/144 143/182/144 144/176/144
f 143/182/145 142/179/145 153/184/145 154/185/145
f 140/172/146 139/180/146 150/186/146 151/187/146
f 137/183/147 136/181/147 147/188/147 148/189/147
f 144/176/148 143/182/148 154/190/148 155/191/148
f 141/173/149 140/172/149 151/187/149 152/192/149
f 138/175/150 137/174/150 148/193/150 149/194/150
f 145/177/151 144/176/151 155/191/151 156/195/151
f 135/178/152 67/14/152 146/196/152
f 142/179/153 141/173/153 152/192/153 153/184/153
f 139/180/154 138/175/154 149/194/154 150/186/154
f 79/20/155 145/177/155 156/195/155
f 136/181/156 135/178/156 146/196/156 147/188/156
f 146/196/157 67/14/157 157/197/157
f 153/184/158 152/192/158 163/198/158 164/199/158
f 150/186/159 149/194/159 160/200/159 161/201/159
f 79/20/160 156/195/160 167/202/160
f 147/188/161 146/196/161 157/197/161 158/203/161
f 154/185/162 153/184/162 164/199/162 165/204/162
f 151/187/163 150/186/163 161/201/163 162/205/163
f 148/189/164 147/188/164 158/203/164 159/206/164
f 155/191/165 154/190/165 165/207/165 166/208/165
f 152/192/166 151/187/166 162/205/166 163/198/166
f 149/194/167 148/193/167 159/209/167 160/200/167
f 156/195/168 155/191/168 166/208/168 167/202/168
f 166/208/169 165/207/169 176/210/169 177/211/169
f 163/198/170 162/205/170 173/212/170 174/213/170
f 160/200/171 159/209/171 170/214/171 171/215/171
f 167/202/172 166/208/172 177/211/172 178/216/172
f 157/197/173 67/14/173 168/217/173
f 164/199/174 163/198/174 174/213/174 175/218/174
f 161/201/175 160/200/175 171/215/175 172/219/175
f 79/20/176 167/202/176 178/216/176
f 158/203/177 157/197/177 168/217/177 169/220/177
f 165/204/178 164/199/178 175/218/178 176/221/178
f 162/205/179 161/201/179 172/219/179 173/212/179
f 159/206/180 158/203/180 169/220/180 170/222/180
f 169/220/181 168/217/181 1/13/181 2/21/181
f 176/221/182 175/218/182 8/16/182 9/23/182
f 173/212/183 172/219/183 5/18/183 6/2/183
f 170/222/184 169/220/184 2/21/184 3/25/184
f 177/211/185 176/210/185 9/27/185 10/10/185
f 174/213/186 173/212/186 6/2/186 7/1/186
f 171/215/187 170/214/187 3/6/187 4/5/187
f 178/216/188 177/211/188 10/10/188 11/9/188
f 168/217/189 67/14/189 1/13/189
f 175/218/190 174/213/190 7/1/190 8/16/190
f 172/219/191 171/215/191 4/5/191 5/18/191
f 79/20/192 178/216/192 11/9/192
