# Blender v2.91.0 OBJ File: 'thorn.blend'
# www.blender.org
mtllib thornskin.mtl
o thorn_Cylinder
v 0.000000 0.000000 -0.531576
v 0.000000 0.845685 -0.531576
v 0.460358 0.000000 -0.265788
v 0.460358 0.845685 -0.265788
v 0.460358 0.000000 0.265788
v 0.460358 0.845685 0.265788
v -0.000000 0.000000 0.531576
v -0.000000 0.845685 0.531576
v -0.460358 0.000000 0.265788
v -0.460358 0.845685 0.265788
v -0.460358 0.000000 -0.265788
v -0.460358 0.845685 -0.265788
v 0.000000 1.428789 -0.388029
v 0.460358 1.324163 -0.143700
v 0.460358 1.114909 0.344957
v -0.000000 1.010282 0.589286
v -0.460358 1.114909 0.344957
v -0.460358 1.324163 -0.143700
v 0.000000 1.914584 -0.163337
v 0.460358 1.754740 0.049014
v 0.460358 1.435052 0.473717
v -0.000000 1.275208 0.686068
v -0.460358 1.435052 0.473717
v -0.460358 1.754740 0.049014
v 0.000000 2.302659 0.231759
v 0.390207 2.154044 0.401073
v 0.390207 1.856813 0.739702
v 0.000000 1.708197 0.909016
v -0.390207 1.856813 0.739702
v -0.390207 2.154044 0.401073
v 0.000000 2.685707 0.627593
v 0.357384 2.523627 0.755281
v 0.357384 2.199465 1.010658
v 0.000000 2.037385 1.138346
v -0.357384 2.199466 1.010658
v -0.357384 2.523627 0.755281
v 0.000000 2.848810 0.864856
v 0.345175 2.675376 0.963018
v 0.345175 2.328508 1.159343
v 0.000000 2.155075 1.257506
v -0.345175 2.328509 1.159343
v -0.345175 2.675376 0.963018
v 0.000000 2.974798 1.125648
v 0.334108 2.792809 1.189598
v 0.334108 2.428833 1.317498
v 0.000000 2.246844 1.381449
v -0.334108 2.428833 1.317499
v -0.334108 2.792809 1.189598
v 0.000000 3.053252 1.519644
v 0.286945 2.891729 1.556468
v 0.286945 2.568683 1.630118
v 0.000000 2.407161 1.666944
v -0.286944 2.568683 1.630118
v -0.286944 2.891729 1.556468
v 0.000000 3.094831 2.016661
v 0.237909 2.958012 2.004522
v 0.237909 2.684374 1.980243
v 0.000000 2.547554 1.968103
v -0.237908 2.684374 1.980243
v -0.237908 2.958012 2.004522
v 0.000185 3.066764 2.168365
v 0.228118 2.939674 2.133174
v 0.227934 2.684129 2.069607
v -0.000184 2.555674 2.041231
v -0.228118 2.682763 2.076422
v -0.227933 2.938308 2.139990
v 0.006392 2.777692 2.550899
v 0.074906 2.744740 2.528866
v 0.074851 2.677803 2.486618
v 0.006281 2.643818 2.466403
v -0.062233 2.676770 2.488435
v -0.062177 2.743707 2.530683
vt 0.732787 0.691407
vt 0.841485 0.677224
vt 0.854588 0.610424
vt 0.745890 0.624607
vt 0.141124 0.000000
vt 0.050896 0.064531
vt 0.128729 0.168617
vt 0.218957 0.104086
vt 0.171065 0.229411
vt 0.261293 0.164881
vt 0.724478 0.532782
vt 0.678147 0.440261
vt 0.559344 0.496896
vt 0.605675 0.589418
vt 0.017722 0.124947
vt 0.111597 0.204662
vt 0.780679 0.881263
vt 0.889377 0.867080
vt 0.858880 0.805552
vt 0.750181 0.819735
vt 0.924668 0.684060
vt 0.927384 0.811659
vt 0.993784 0.826743
vt 1.000000 0.701920
vt 0.928523 0.871728
vt 0.923092 0.616531
vt 0.800498 0.524116
vt 0.905135 0.602283
vt 0.908644 0.577198
vt 0.802949 0.506571
vt 0.673841 0.415439
vt 0.551059 0.458095
vt 0.289165 0.111110
vt 0.269601 0.206951
vt 0.300538 0.279427
vt 0.317955 0.203852
vt 0.667230 0.375029
vt 0.544033 0.407868
vt 0.000000 0.195537
vt 0.096293 0.254303
vt 0.977059 0.881263
vt 0.913954 0.539154
vt 0.807023 0.477407
vt 0.489339 0.057255
vt 0.389169 0.000000
vt 0.406964 0.063731
vt 0.505199 0.112193
vt 0.418222 0.166524
vt 0.336681 0.296477
vt 0.429253 0.269394
vt 0.906843 0.463872
vt 0.815811 0.414375
vt 0.501070 0.204770
vt 0.661711 0.301336
vt 0.557440 0.326474
vt 0.009467 0.296275
vt 0.090761 0.339900
vt 0.529104 0.249881
vt 0.567714 0.255196
vt 0.575360 0.222854
vt 0.540327 0.208084
vt 0.662401 0.238246
vt 0.022142 0.394457
vt 0.094120 0.419726
vt 0.513508 0.333935
vt 0.908823 0.390487
vt 0.824461 0.352258
vt 0.504392 0.297317
vt 0.433008 0.329732
vt 0.343217 0.349499
vt 0.347753 0.406370
vt 0.434845 0.394994
vt 0.911141 0.351789
vt 0.828775 0.321232
vt 0.505199 0.350310
vt 0.732787 0.367030
vt 0.741118 0.329134
vt 0.036459 0.446945
vt 0.102213 0.458918
vt 0.554727 0.167878
vt 0.585111 0.192599
vt 0.612922 0.137802
vt 0.589210 0.111155
vt 0.833161 0.289677
vt 0.749383 0.289625
vt 0.057188 0.500482
vt 0.114748 0.497752
vt 0.913954 0.311554
vt 0.504541 0.407156
vt 0.771751 0.213728
vt 0.843090 0.218189
vt 0.853468 0.143450
vt 0.795733 0.129559
vt 0.913092 0.232561
vt 0.432812 0.491364
vt 0.492694 0.497350
vt 0.358038 0.496676
vt 0.100701 0.580762
vt 0.145951 0.570533
vt 0.912920 0.145174
vt 0.913402 0.123650
vt 0.855855 0.125904
vt 0.159597 0.674483
vt 0.185237 0.648849
vt 0.645514 0.081119
vt 0.632505 0.048315
vt 0.427782 0.611792
vt 0.477891 0.606429
vt 0.366247 0.605869
vt 0.198422 0.666518
vt 0.180464 0.698461
vt 0.260337 0.763978
vt 0.261293 0.750599
vt 0.424538 0.647739
vt 0.473041 0.637011
vt 0.365882 0.638088
vt 0.801303 0.107099
vt 0.655520 0.069402
vt 0.646749 0.033930
vt 0.724478 0.012314
vt 0.871729 0.023177
vt 0.408325 0.734048
vt 0.724272 0.000000
vt 0.889395 0.019836
vt 0.423288 0.728172
vt 0.391053 0.728427
vt 0.855690 0.014931
vn 0.5000 0.0000 -0.8660
vn 1.0000 0.0000 0.0000
vn 0.5000 0.0000 0.8660
vn -0.5000 0.0000 0.8660
vn -1.0000 0.0000 0.0000
vn -0.5000 0.0000 -0.8660
vn 0.0000 -1.0000 0.0000
vn -0.4955 0.3601 -0.7905
vn 0.4920 0.2113 -0.8446
vn 0.4903 -0.2622 0.8312
vn -0.4920 0.2113 -0.8446
vn -0.4903 -0.2622 0.8312
vn -0.9908 0.1053 0.0851
vn -0.4927 -0.3130 0.8120
vn 0.4927 -0.3130 0.8120
vn 0.4955 0.3601 -0.7905
vn -0.4984 0.6228 -0.6031
vn 0.4922 -0.4014 0.7724
vn 0.4972 0.6201 -0.6068
vn -0.4972 0.6201 -0.6068
vn -0.4922 -0.4014 0.7724
vn 0.9908 0.1053 0.0851
vn -0.9985 0.0301 0.0447
vn -0.4916 -0.5045 0.7098
vn 0.9976 0.0479 0.0501
vn -0.9976 0.0479 0.0501
vn 0.4916 -0.5045 0.7098
vn 0.4984 0.6228 -0.6031
vn -0.4984 0.7800 -0.3783
vn 0.4934 -0.6284 0.6014
vn 0.4989 0.7139 -0.4914
vn -0.4989 0.7139 -0.4914
vn -0.4934 -0.6284 0.6014
vn 0.9985 0.0301 0.0447
vn -0.9915 0.0366 0.1248
vn -0.4919 -0.7106 0.5032
vn 0.9987 0.0208 0.0457
vn -0.9987 0.0208 0.0457
vn 0.4919 -0.7106 0.5032
vn 0.4984 0.7800 -0.3783
vn -0.4749 -0.8062 0.3528
vn 0.4903 -0.7628 0.4215
vn 0.4978 0.8509 -0.1675
vn -0.4978 0.8509 -0.1675
vn -0.4903 -0.7628 0.4215
vn 0.9915 0.0366 0.1248
vn 0.4886 -0.8695 0.0727
vn 0.9928 0.0099 0.1197
vn -0.9928 0.0099 0.1197
vn 0.4749 -0.8062 0.3528
vn 0.4954 0.8656 -0.0731
vn -0.4954 0.8656 -0.0731
vn 0.9388 -0.1080 0.3271
vn 0.4988 0.8522 0.1581
vn -0.4988 0.8519 0.1594
vn -0.4873 -0.8711 0.0611
vn 0.9959 -0.0151 0.0890
vn -0.9964 -0.0136 0.0838
vn 0.0152 -0.5337 0.8455
vn -0.9279 -0.1156 0.3545
vn 0.4529 -0.8763 0.1640
vn 0.4803 0.7013 0.5269
vn -0.4704 0.6973 0.5408
vn -0.4409 -0.8799 0.1771
usemtl ThornSkin
s off
f 1/1/1 2/2/1 4/3/1 3/4/1
f 3/5/2 4/6/2 6/7/2 5/8/2
f 5/8/3 6/7/3 8/9/3 7/10/3
f 7/11/4 8/12/4 10/13/4 9/14/4
f 6/7/2 4/6/2 14/15/2 15/16/2
f 9/17/5 10/18/5 12/19/5 11/20/5
f 11/20/6 12/19/6 2/2/6 1/1/6
f 1/1/7 3/5/7 5/8/7 7/10/7
f 13/21/8 18/22/8 24/23/8 19/24/8
f 12/19/5 10/18/5 17/25/5 18/22/5
f 4/3/9 2/2/9 13/21/9 14/26/9
f 8/27/10 6/28/10 15/29/10 16/30/10
f 2/2/11 12/19/11 18/22/11 13/21/11
f 10/13/12 8/12/12 16/31/12 17/32/12
f 24/33/13 23/34/13 29/35/13 30/36/13
f 17/32/14 16/31/14 22/37/14 23/38/14
f 15/16/2 14/15/2 20/39/2 21/40/2
f 18/22/5 17/25/5 23/41/5 24/23/5
f 16/30/15 15/29/15 21/42/15 22/43/15
f 14/44/16 13/45/16 19/46/16 20/47/16
f 25/48/17 30/36/17 36/49/17 31/50/17
f 22/43/18 21/42/18 27/51/18 28/52/18
f 20/47/19 19/46/19 25/48/19 26/53/19
f 19/46/20 24/33/20 30/36/20 25/48/20
f 23/38/21 22/37/21 28/54/21 29/55/21
f 21/40/22 20/39/22 26/56/22 27/57/22
f 36/58/23 35/59/23 41/60/23 42/61/23
f 29/55/24 28/54/24 34/62/24 35/59/24
f 27/57/25 26/56/25 32/63/25 33/64/25
f 30/65/26 29/55/26 35/59/26 36/58/26
f 28/52/27 27/51/27 33/66/27 34/67/27
f 26/53/28 25/48/28 31/50/28 32/68/28
f 37/69/29 42/70/29 48/71/29 43/72/29
f 34/67/30 33/66/30 39/73/30 40/74/30
f 32/68/31 31/50/31 37/69/31 38/75/31
f 31/50/32 36/49/32 42/70/32 37/69/32
f 35/76/33 34/67/33 40/74/33 41/77/33
f 33/64/34 32/63/34 38/78/34 39/79/34
f 48/80/35 47/81/35 53/82/35 54/83/35
f 41/77/36 40/74/36 46/84/36 47/85/36
f 39/79/37 38/78/37 44/86/37 45/87/37
f 42/61/38 41/60/38 47/81/38 48/80/38
f 40/74/39 39/73/39 45/88/39 46/84/39
f 38/75/40 37/69/40 43/72/40 44/89/40
f 53/90/41 52/91/41 58/92/41 59/93/41
f 46/84/42 45/88/42 51/94/42 52/91/42
f 44/89/43 43/72/43 49/95/43 50/96/43
f 43/72/44 48/71/44 54/97/44 49/95/44
f 47/85/45 46/84/45 52/91/45 53/90/45
f 45/87/46 44/86/46 50/98/46 51/99/46
f 58/92/47 57/100/47 63/101/47 64/102/47
f 51/99/48 50/98/48 56/103/48 57/104/48
f 54/83/49 53/82/49 59/105/49 60/106/49
f 52/91/50 51/94/50 57/100/50 58/92/50
f 50/96/51 49/95/51 55/107/51 56/108/51
f 49/95/52 54/97/52 60/109/52 55/107/52
f 63/110/53 62/111/53 68/112/53 69/113/53
f 56/108/54 55/107/54 61/114/54 62/115/54
f 55/107/55 60/109/55 66/116/55 61/114/55
f 59/93/56 58/92/56 64/102/56 65/117/56
f 57/104/57 56/103/57 62/111/57 63/110/57
f 60/106/58 59/105/58 65/118/58 66/119/58
f 71/120/59 70/121/59 67/122/59 72/123/59
f 66/119/60 65/118/60 71/120/60 72/123/60
f 64/102/61 63/101/61 69/124/61 70/121/61
f 62/115/62 61/114/62 67/122/62 68/125/62
f 61/114/63 66/116/63 72/126/63 67/122/63
f 65/117/64 64/102/64 70/121/64 71/127/64
f 7/10/7 9/17/7 11/20/7 1/1/7
f 68/112/59 67/122/59 70/121/59 69/113/59
