# Blender v2.91.0 OBJ File: 'thorn.blend'
# www.blender.org
mtllib thornskin.mtl
o thorn_Cylinder
v 0.000000 0.000000 -0.531576
v 0.000000 0.845685 -0.531576
v 0.460358 0.000000 -0.265788
v 0.460358 0.845685 -0.265788
v 0.460358 0.000000 0.265788
v 0.460358 0.845685 0.265788
v -0.000000 0.000000 0.531576
v -0.000000 0.845685 0.531576
v -0.460358 0.000000 0.265788
v -0.460358 0.845685 0.265788
v -0.460358 0.000000 -0.265788
v -0.460358 0.845685 -0.265788
v 0.000000 1.428789 -0.388029
v 0.460358 1.324163 -0.143700
v 0.460358 1.114909 0.344957
v -0.000000 1.010282 0.589286
v -0.460358 1.114909 0.344957
v -0.460358 1.324163 -0.143700
v 0.000000 1.914584 -0.163337
v 0.460358 1.754740 0.049014
v 0.460358 1.435052 0.473717
v -0.000000 1.275208 0.686068
v -0.460358 1.435052 0.473717
v -0.460358 1.754740 0.049014
vt 0.732787 0.691407
vt 0.841485 0.677224
vt 0.854588 0.610424
vt 0.745890 0.624607
vt 0.141124 0.000000
vt 0.050896 0.064531
vt 0.128729 0.168617
vt 0.218957 0.104086
vt 0.171065 0.229411
vt 0.261293 0.164881
vt 0.724478 0.532782
vt 0.678147 0.440261
vt 0.559344 0.496896
vt 0.605675 0.589418
vt 0.017722 0.124947
vt 0.111597 0.204662
vt 0.780679 0.881263
vt 0.889377 0.867080
vt 0.858880 0.805552
vt 0.750181 0.819735
vt 0.924668 0.684060
vt 0.927384 0.811659
vt 0.993784 0.826743
vt 1.000000 0.701920
vt 0.928523 0.871728
vt 0.923092 0.616531
vt 0.800498 0.524116
vt 0.905135 0.602283
vt 0.908644 0.577198
vt 0.802949 0.506571
vt 0.673841 0.415439
vt 0.551059 0.458095
vt 0.667230 0.375029
vt 0.544033 0.407868
vt 0.000000 0.195537
vt 0.096293 0.254303
vt 0.977059 0.881263
vt 0.913954 0.539154
vt 0.807023 0.477407
vt 0.489339 0.057255
vt 0.389169 0.000000
vt 0.406964 0.063731
vt 0.505199 0.112193
vn 0.5000 0.0000 -0.8660
vn 1.0000 0.0000 0.0000
vn 0.5000 0.0000 0.8660
vn -0.5000 0.0000 0.8660
vn -1.0000 0.0000 0.0000
vn -0.5000 0.0000 -0.8660
vn 0.0000 -1.0000 0.0000
vn -0.4955 0.3601 -0.7905
vn 0.4920 0.2113 -0.8446
vn 0.4903 -0.2622 0.8312
vn -0.4920 0.2113 -0.8446
vn -0.4903 -0.2622 0.8312
vn -0.4927 -0.3130 0.8120
vn 0.4927 -0.3130 0.8120
vn 0.4955 0.3601 -0.7905
vn 0.0000 0.7990 0.6014
usemtl ThornSkin
f 1/1/1 2/2/1 4/3/1 3/4/1
f 3/5/2 4/6/2 6/7/2 5/8/2
f 5/8/3 6/7/3 8/9/3 7/10/3
f 7/11/4 8/12/4 10/13/4 9/14/4
f 6/7/2 4/6/2 14/15/2 15/16/2
f 9/17/5 10/18/5 12/19/5 11/20/5
f 11/20/6 12/19/6 2/2/6 1/1/6
f 1/1/7 3/5/7 5/8/7 7/10/7
f 13/21/8 18/22/8 24/23/8 19/24/8
f 12/19/5 10/18/5 17/25/5 18/22/5
f 4/3/9 2/2/9 13/21/9 14/26/9
f 8/27/10 6/28/10 15/29/10 16/30/10
f 2/2/11 12/19/11 18/22/11 13/21/11
f 10/13/12 8/12/12 16/31/12 17/32/12
f 17/32/13 16/31/13 22/33/13 23/34/13
f 15/16/2 14/15/2 20/35/2 21/36/2
f 18/22/5 17/25/5 23/37/5 24/23/5
f 16/30/14 15/29/14 21/38/14 22/39/14
f 14/40/15 13/41/15 19/42/15 20/43/15
f 23/37/16 22/33/16 19/24/16 24/23/16
f 7/10/7 9/17/7 11/20/7 1/1/7
f 20/35/16 19/24/16 22/39/16 21/36/16
