# Blender v2.91.0 OBJ File: 'thorn.blend'
# www.blender.org
mtllib thornskin.mtl
o thorn_Cylinder
v 0.000000 0.000000 -0.531576
v 0.000000 0.845685 -0.531576
v 0.460358 0.000000 -0.265788
v 0.460358 0.845685 -0.265788
v 0.460358 0.000000 0.265788
v 0.460358 0.845685 0.265788
v -0.000000 0.000000 0.531576
v -0.000000 0.845685 0.531576
v -0.460358 0.000000 0.265788
v -0.460358 0.845685 0.265788
v -0.460358 0.000000 -0.265788
v -0.460358 0.845685 -0.265788
v 0.000000 1.428789 -0.388029
v 0.460358 1.324163 -0.143700
v 0.460358 1.114909 0.344957
v -0.000000 1.010282 0.589286
v -0.460358 1.114909 0.344957
v -0.460358 1.324163 -0.143700
v 0.000000 1.914584 -0.163337
v 0.460358 1.754740 0.049014
v 0.460358 1.435052 0.473717
v -0.000000 1.275208 0.686068
v -0.460358 1.435052 0.473717
v -0.460358 1.754740 0.049014
v 0.000000 2.302659 0.231759
v 0.390207 2.154044 0.401073
v 0.390207 1.856813 0.739702
v 0.000000 1.708197 0.909016
v -0.390207 1.856813 0.739702
v -0.390207 2.154044 0.401073
v 0.000000 2.685707 0.627593
v 0.357384 2.523627 0.755281
v 0.357384 2.199465 1.010658
v 0.000000 2.037385 1.138346
v -0.357384 2.199466 1.010658
v -0.357384 2.523627 0.755281
v 0.000000 2.848810 0.864856
v 0.345175 2.675376 0.963018
v 0.345175 2.328508 1.159343
v 0.000000 2.155075 1.257506
v -0.345175 2.328509 1.159343
v -0.345175 2.675376 0.963018
vt 0.732787 0.691407
vt 0.841485 0.677224
vt 0.854588 0.610424
vt 0.745890 0.624607
vt 0.141124 0.000000
vt 0.050896 0.064531
vt 0.128729 0.168617
vt 0.218957 0.104086
vt 0.171065 0.229411
vt 0.261293 0.164881
vt 0.724478 0.532782
vt 0.678147 0.440261
vt 0.559344 0.496896
vt 0.605675 0.589418
vt 0.017722 0.124947
vt 0.111597 0.204662
vt 0.780679 0.881263
vt 0.889377 0.867080
vt 0.858880 0.805552
vt 0.750181 0.819735
vt 0.924668 0.684060
vt 0.927384 0.811659
vt 0.993784 0.826743
vt 1.000000 0.701920
vt 0.928523 0.871728
vt 0.923092 0.616531
vt 0.800498 0.524116
vt 0.905135 0.602283
vt 0.908644 0.577198
vt 0.802949 0.506571
vt 0.673841 0.415439
vt 0.551059 0.458095
vt 0.289165 0.111110
vt 0.269601 0.206951
vt 0.300538 0.279427
vt 0.317955 0.203852
vt 0.667230 0.375029
vt 0.544033 0.407868
vt 0.000000 0.195537
vt 0.096293 0.254303
vt 0.977059 0.881263
vt 0.913954 0.539154
vt 0.807023 0.477407
vt 0.489339 0.057255
vt 0.389169 0.000000
vt 0.406964 0.063731
vt 0.505199 0.112193
vt 0.418222 0.166524
vt 0.336681 0.296477
vt 0.429253 0.269394
vt 0.906843 0.463872
vt 0.815811 0.414375
vt 0.501070 0.204770
vt 0.661711 0.301336
vt 0.557440 0.326474
vt 0.009467 0.296275
vt 0.090761 0.339900
vt 0.529104 0.249881
vt 0.567714 0.255196
vt 0.575360 0.222854
vt 0.540327 0.208084
vt 0.662401 0.238246
vt 0.022142 0.394457
vt 0.094120 0.419726
vt 0.513508 0.333935
vt 0.908823 0.390487
vt 0.824461 0.352258
vt 0.504392 0.297317
vt 0.911141 0.351789
vt 0.828775 0.321232
vt 0.433008 0.329732
vt 0.505199 0.350310
vt 0.343217 0.349499
vt 0.732787 0.367030
vt 0.741118 0.329134
vt 0.036459 0.446945
vt 0.102213 0.458918
vn 0.5000 0.0000 -0.8660
vn 1.0000 0.0000 0.0000
vn 0.5000 0.0000 0.8660
vn -0.5000 0.0000 0.8660
vn -1.0000 0.0000 0.0000
vn -0.5000 0.0000 -0.8660
vn 0.0000 -1.0000 0.0000
vn -0.4955 0.3601 -0.7905
vn 0.4920 0.2113 -0.8446
vn 0.4903 -0.2622 0.8312
vn -0.4920 0.2113 -0.8446
vn -0.4903 -0.2622 0.8312
vn -0.9908 0.1053 0.0851
vn -0.4927 -0.3130 0.8120
vn 0.4927 -0.3130 0.8120
vn 0.4955 0.3601 -0.7905
vn -0.4984 0.6228 -0.6031
vn 0.4922 -0.4014 0.7724
vn 0.4972 0.6201 -0.6068
vn -0.4972 0.6201 -0.6068
vn -0.4922 -0.4014 0.7724
vn 0.9908 0.1053 0.0851
vn -0.9985 0.0301 0.0447
vn -0.4916 -0.5045 0.7098
vn 0.9976 0.0479 0.0501
vn -0.9976 0.0479 0.0501
vn 0.4916 -0.5045 0.7098
vn 0.4984 0.6228 -0.6031
vn 0.4934 -0.6284 0.6014
vn 0.4989 0.7139 -0.4914
vn -0.4989 0.7139 -0.4914
vn -0.4934 -0.6284 0.6014
vn 0.9985 0.0301 0.0447
vn -0.0000 0.4926 0.8703
usemtl ThornSkin
f 1/1/1 2/2/1 4/3/1 3/4/1
f 3/5/2 4/6/2 6/7/2 5/8/2
f 5/8/3 6/7/3 8/9/3 7/10/3
f 7/11/4 8/12/4 10/13/4 9/14/4
f 6/7/2 4/6/2 14/15/2 15/16/2
f 9/17/5 10/18/5 12/19/5 11/20/5
f 11/20/6 12/19/6 2/2/6 1/1/6
f 1/1/7 3/5/7 5/8/7 7/10/7
f 13/21/8 18/22/8 24/23/8 19/24/8
f 12/19/5 10/18/5 17/25/5 18/22/5
f 4/3/9 2/2/9 13/21/9 14/26/9
f 8/27/10 6/28/10 15/29/10 16/30/10
f 2/2/11 12/19/11 18/22/11 13/21/11
f 10/13/12 8/12/12 16/31/12 17/32/12
f 24/33/13 23/34/13 29/35/13 30/36/13
f 17/32/14 16/31/14 22/37/14 23/38/14
f 15/16/2 14/15/2 20/39/2 21/40/2
f 18/22/5 17/25/5 23/41/5 24/23/5
f 16/30/15 15/29/15 21/42/15 22/43/15
f 14/44/16 13/45/16 19/46/16 20/47/16
f 25/48/17 30/36/17 36/49/17 31/50/17
f 22/43/18 21/42/18 27/51/18 28/52/18
f 20/47/19 19/46/19 25/48/19 26/53/19
f 19/46/20 24/33/20 30/36/20 25/48/20
f 23/38/21 22/37/21 28/54/21 29/55/21
f 21/40/22 20/39/22 26/56/22 27/57/22
f 36/58/23 35/59/23 41/60/23 42/61/23
f 29/55/24 28/54/24 34/62/24 35/59/24
f 27/57/25 26/56/25 32/63/25 33/64/25
f 30/65/26 29/55/26 35/59/26 36/58/26
f 28/52/27 27/51/27 33/66/27 34/67/27
f 26/53/28 25/48/28 31/50/28 32/68/28
f 34/67/29 33/66/29 39/69/29 40/70/29
f 32/68/30 31/50/30 37/71/30 38/72/30
f 31/50/31 36/49/31 42/73/31 37/71/31
f 35/74/32 34/67/32 40/70/32 41/75/32
f 33/64/33 32/63/33 38/76/33 39/77/33
f 41/60/34 40/70/34 37/71/34 42/61/34
f 7/10/7 9/17/7 11/20/7 1/1/7
f 38/76/34 37/71/34 40/70/34 39/77/34
