# Blender v2.91.0 OBJ File: 'thorn.blend'
# www.blender.org
mtllib thornskin.mtl
o thorn_Cylinder
v 0.000000 0.000000 -0.531576
v 0.000000 0.845685 -0.531576
v 0.460358 0.000000 -0.265788
v 0.460358 0.845685 -0.265788
v 0.460358 0.000000 0.265788
v 0.460358 0.845685 0.265788
v -0.000000 0.000000 0.531576
v -0.000000 0.845685 0.531576
v -0.460358 0.000000 0.265788
v -0.460358 0.845685 0.265788
v -0.460358 0.000000 -0.265788
v -0.460358 0.845685 -0.265788
vt 0.732787 0.691407
vt 0.841485 0.677224
vt 0.854588 0.610424
vt 0.745890 0.624607
vt 0.141124 0.000000
vt 0.050896 0.064531
vt 0.128729 0.168617
vt 0.218957 0.104086
vt 0.171065 0.229411
vt 0.261293 0.164881
vt 0.724478 0.532782
vt 0.678147 0.440261
vt 0.559344 0.496896
vt 0.605675 0.589418
vt 0.780679 0.881263
vt 0.889377 0.867080
vt 0.858880 0.805552
vt 0.750181 0.819735
vn 0.5000 0.0000 -0.8660
vn 1.0000 0.0000 0.0000
vn 0.5000 0.0000 0.8660
vn -0.5000 0.0000 0.8660
vn -1.0000 0.0000 0.0000
vn -0.5000 0.0000 -0.8660
vn 0.0000 -1.0000 0.0000
vn 0.0000 1.0000 0.0000
usemtl ThornSkin
f 1/1/1 2/2/1 4/3/1 3/4/1
f 3/5/2 4/6/2 6/7/2 5/8/2
f 5/8/3 6/7/3 8/9/3 7/10/3
f 7/11/4 8/12/4 10/13/4 9/14/4
f 9/15/5 10/16/5 12/17/5 11/18/5
f 11/18/6 12/17/6 2/2/6 1/1/6
f 1/1/7 3/5/7 5/8/7 7/10/7
f 10/16/8 8/12/8 2/2/8 12/17/8
f 7/10/7 9/15/7 11/18/7 1/1/7
f 4/6/8 2/2/8 8/9/8 6/7/8
