# Blender v2.91.0 OBJ File: 'cloak_medium.blend'
# www.blender.org
mtllib cloak.mtl
o InsideMesh_Plane
v -0.950000 -3.403181 0.103545
v 0.950000 -3.403181 0.103545
v -0.950000 0.000000 -0.030000
v 0.950000 0.000000 -0.030000
v 1.396517 -2.072680 -1.153959
v -0.950000 -2.076517 0.103545
v 0.950000 -2.076517 0.103545
v 0.968502 -3.157487 -1.664366
v -0.997584 -3.153908 0.103545
v 0.997584 -3.153908 0.103545
v 0.895827 -3.417290 -1.712875
v 1.190606 -3.409286 -1.365592
v 1.227652 -3.294516 -1.354458
v 1.233831 -3.155467 -1.352672
v 1.247154 -2.504234 -1.421431
v 1.067645 -3.413970 -1.566796
v 1.121718 -3.210213 -1.549952
v 1.127758 -3.156706 -1.550566
v 1.142450 -2.853509 -1.537586
v 0.000000 -3.403181 0.359323
v 0.000000 0.000000 0.225778
v 0.000000 -2.076517 0.359323
v 0.000000 -3.153907 0.359323
v 0.475000 -3.403181 0.325055
v 0.475000 0.000000 0.191510
v 0.475000 -2.076517 0.325055
v 0.475000 -3.153907 0.325055
v -0.475000 0.000000 0.191510
v -0.475000 -2.076517 0.325055
v -0.475000 -3.153907 0.325055
v -0.475000 -3.403181 0.325055
v -1.297509 -3.154458 -1.154087
v -1.360624 -2.298396 -1.325188
v -1.280055 -3.405416 -1.140877
v -1.291924 -3.363092 -1.156735
v -1.142450 -2.853509 -1.537586
v -1.127758 -3.156706 -1.550566
v -1.121718 -3.210213 -1.549952
v -1.067645 -3.413970 -1.566796
v -1.247154 -2.504234 -1.421431
v -1.233831 -3.155467 -1.352672
v -1.227652 -3.294516 -1.354458
v 1.291924 -3.363092 -1.156735
v 1.280055 -3.405416 -1.140877
v 1.360624 -2.298396 -1.325188
v 1.297509 -3.154458 -1.154087
v -1.190606 -3.409286 -1.365592
v -0.895827 -3.417290 -1.712875
v -0.968502 -3.157487 -1.664366
v -1.396517 -2.072680 -1.153959
v 1.425006 -2.684164 -0.901420
v 1.351973 -3.381373 -0.934942
v 1.389369 -2.074858 -0.900582
v 1.341936 -3.404405 -0.941916
v 1.378696 -3.154177 -0.911466
v 1.416994 -1.074863 -0.998638
v 1.301219 -0.574269 -0.450652
v 1.269992 -3.393004 -0.296474
v 1.315900 -2.075718 -0.292439
v 1.340110 -2.937570 -0.239847
v 1.303304 -3.154030 -0.273960
v 1.264809 -3.403750 -0.298452
v -1.425006 -2.684164 -0.901420
v -1.351973 -3.381373 -0.934942
v -1.389369 -2.074858 -0.900582
v -1.341936 -3.404405 -0.941916
v -1.378696 -3.154177 -0.911466
v -1.416994 -1.074863 -0.998638
v -1.301219 -0.574269 -0.450652
v -1.269992 -3.393004 -0.296474
v -1.315900 -2.075718 -0.292439
v -1.340110 -2.937570 -0.239847
v -1.303304 -3.154030 -0.273960
v -1.264809 -3.403750 -0.298452
vt 0.709539 0.261075
vt 0.709539 0.665415
vt 0.845259 0.665415
vt 0.845259 0.261075
vt 0.709539 0.051286
vt 0.858855 0.051286
vt 0.573820 0.854275
vt 0.477390 0.714899
vt 0.225272 0.767320
vt 0.225138 0.898523
vt 0.709539 0.002747
vt 0.845259 0.002747
vt 0.044226 0.898523
vt 0.080553 0.784746
vt 0.044206 0.773443
vt 0.850545 0.050589
vt 0.829780 0.000000
vt 0.878873 0.000646
vt 0.894323 0.040322
vt 0.002369 0.898523
vt 0.004078 0.765983
vt 0.438100 0.002747
vt 0.438100 0.051286
vt 0.573820 0.051286
vt 0.573820 0.002747
vt 0.043964 0.416029
vt 0.153317 0.393247
vt 0.094668 0.354761
vt 0.043756 0.350460
vt 0.001344 0.411748
vt 0.001994 0.486204
vt 0.009101 0.480950
vt 0.020616 0.415437
vt 0.034772 0.350664
vt 0.896049 0.050741
vt 0.900247 0.109779
vt 0.000557 0.345083
vt 0.438100 0.261075
vt 0.573820 0.261075
vt 0.438100 0.665415
vt 0.573820 0.665415
vt 0.302381 0.261075
vt 0.302381 0.665415
vt 0.288785 0.051286
vt 0.302381 0.002747
vt 0.043964 0.416029
vt 0.020616 0.415437
vt 0.034772 0.350664
vt 0.043756 0.350460
vt 0.002164 0.552126
vt 0.006031 0.554437
vt 0.004078 0.765983
vt 0.002273 0.765328
vt 0.001994 0.486204
vt 0.009101 0.480950
vt 0.000557 0.345083
vt 0.001344 0.411748
vt 0.251591 0.050741
vt 0.253317 0.040322
vt 0.297094 0.050589
vt 0.044134 0.481827
vt 0.187881 0.425136
vt 0.153317 0.393247
vt 0.225417 0.565822
vt 0.123104 0.565544
vt 0.225782 0.481869
vt 0.247393 0.109779
vt 0.002164 0.552126
vt 0.006031 0.554437
vt 0.044134 0.481827
vt 0.187881 0.425136
vt 0.094668 0.354761
vt 0.268767 0.000646
vt 0.317859 0.000000
vt 0.044181 0.562216
vt 0.002273 0.765328
vt 0.044181 0.562216
vt 0.123104 0.565544
vt 0.225417 0.565822
vt 0.225782 0.481869
vt 0.393332 0.533333
vt 0.935208 0.765328
vt 0.845259 0.898523
vt 0.936688 0.765983
vt 0.393332 0.533333
vt 0.044206 0.773443
vt 0.080553 0.784746
vt 0.225272 0.767320
vt 0.477390 0.714899
vt 0.044226 0.898523
vt 0.002369 0.898523
vt 0.225138 0.898523
vt 0.573820 0.854275
vn -0.4219 -0.0582 -0.9048
vn -0.4059 -0.0090 -0.9139
vn -0.7691 -0.0551 -0.6367
vn -0.4056 0.0387 -0.9132
vn -0.7571 0.2254 -0.6132
vn -0.7146 -0.0454 -0.6980
vn -0.6188 0.0588 0.7833
vn -0.7705 0.1562 -0.6180
vn 0.0720 0.0000 -0.9974
vn -0.8564 0.0551 0.5133
vn -0.8853 0.2867 0.3661
vn -0.8744 0.0525 0.4823
vn -0.5800 0.0748 0.8112
vn -0.5814 -0.0067 0.8136
vn -0.8327 0.1926 0.5191
vn 0.0718 -0.0640 -0.9954
vn -0.0720 0.0000 -0.9974
vn -0.0718 -0.0640 -0.9954
vn 0.4219 -0.0582 -0.9048
vn 0.4059 -0.0090 -0.9139
vn 0.4056 0.0387 -0.9132
vn 0.8744 0.0525 0.4823
vn 0.8955 0.4320 -0.1074
vn 0.8998 0.3389 0.2747
vn 0.8327 0.1926 0.5191
vn 0.5800 0.0748 0.8112
vn 0.9498 0.0282 0.3115
vn 0.8853 0.1165 0.4502
vn 0.8853 0.2867 0.3661
vn 0.9979 -0.0583 -0.0287
vn 0.9588 0.1220 0.2567
vn 0.5814 -0.0067 0.8136
vn -0.8998 0.3389 0.2747
vn -0.9498 0.0282 0.3115
vn -0.8853 0.1165 0.4502
vn 0.8564 0.0551 0.5133
vn 0.6188 0.0588 0.7833
vn 0.9548 0.0532 0.2924
vn -0.8955 0.4320 -0.1074
vn -0.9548 0.0532 0.2924
vn -0.9588 0.1220 0.2567
vn -0.9979 -0.0583 -0.0287
vn -0.9993 0.0249 -0.0280
vn -0.7058 0.4423 -0.5533
vn -0.9831 0.1384 -0.1200
vn -0.9873 0.1258 -0.0973
vn -0.9902 -0.0449 -0.1325
vn -0.9876 -0.0110 -0.1569
vn 0.9993 0.0249 -0.0280
vn 0.9831 0.1384 -0.1200
vn 0.9873 0.1258 -0.0973
vn 0.9902 -0.0449 -0.1325
vn 0.9876 -0.0110 -0.1569
vn 0.7705 0.1562 -0.6180
vn 0.7571 0.2254 -0.6132
vn 0.7146 -0.0454 -0.6980
vn 0.7691 -0.0551 -0.6367
vn 0.9846 0.0255 0.1728
vn 0.9448 0.0863 0.3161
vn -0.9448 0.0863 0.3161
vn -0.9846 0.0255 0.1728
usemtl Inside
s off
f 26/1/1 25/2/1 4/3/1 7/4/1
f 27/5/2 26/1/2 7/4/2 10/6/2
f 4/7/3 57/8/3 59/9/3 7/10/3
f 24/11/4 27/5/4 10/6/4 2/12/4
f 10/13/5 60/14/5 61/15/5
f 7/10/6 59/9/6 60/14/6 10/13/6
f 8/16/7 11/17/7 16/18/7 17/19/7
f 2/20/8 10/13/8 61/15/8 58/21/8
f 31/22/9 30/23/9 23/24/9 20/25/9
f 14/26/10 15/27/10 19/28/10 18/29/10
f 12/30/11 44/31/11 43/32/11 13/33/11
f 14/26/12 18/29/12 17/34/12 13/33/12
f 18/35/13 8/16/13 17/19/13
f 18/35/14 19/36/14 8/16/14
f 16/37/15 12/30/15 13/33/15 17/34/15
f 30/23/9 29/38/9 22/39/9 23/24/9
f 29/38/16 28/40/16 21/41/16 22/39/16
f 20/25/17 23/24/17 27/5/17 24/11/17
f 23/24/17 22/39/17 26/1/17 27/5/17
f 22/39/18 21/41/18 25/2/18 26/1/18
f 6/42/19 3/43/19 28/40/19 29/38/19
f 9/44/20 6/42/20 29/38/20 30/23/20
f 1/45/21 9/44/21 30/23/21 31/22/21
f 41/46/22 42/47/22 38/48/22 37/49/22
f 66/50/23 64/51/23 70/52/23 74/53/23
f 34/54/24 35/55/24 64/51/24 66/50/24
f 39/56/25 38/48/25 42/47/25 47/57/25
f 37/58/26 38/59/26 49/60/26
f 32/61/27 35/55/27 42/47/27 41/46/27
f 33/62/28 32/61/28 41/46/28 40/63/28
f 47/57/29 42/47/29 35/55/29 34/54/29
f 65/64/30 63/65/30 50/66/30
f 33/62/31 63/65/31 32/61/31
f 37/58/32 49/60/32 36/67/32
f 44/31/33 54/68/33 52/69/33 43/32/33
f 46/70/34 14/26/34 13/33/34 43/32/34
f 45/71/35 15/27/35 14/26/35 46/70/35
f 41/46/36 37/49/36 36/72/36 40/63/36
f 49/60/37 38/59/37 39/73/37 48/74/37
f 67/75/38 64/51/38 35/55/38 32/61/38
f 54/68/39 62/76/39 58/21/39 52/69/39
f 55/77/40 46/70/40 43/32/40 52/69/40
f 46/70/41 51/78/41 45/71/41
f 53/79/42 5/80/42 51/78/42
f 56/81/43 5/80/43 53/79/43
f 62/82/44 2/83/44 58/84/44
f 61/15/45 55/77/45 52/69/45 58/21/45
f 60/14/46 51/78/46 55/77/46 61/15/46
f 59/9/47 53/79/47 51/78/47 60/14/47
f 57/8/48 56/81/48 53/79/48 59/9/48
f 68/85/49 65/64/49 50/66/49
f 73/86/50 70/52/50 64/51/50 67/75/50
f 72/87/51 73/86/51 67/75/51 63/65/51
f 71/88/52 72/87/52 63/65/52 65/64/52
f 69/89/53 71/88/53 65/64/53 68/85/53
f 9/90/54 1/91/54 70/52/54 73/86/54
f 73/86/55 72/87/55 9/90/55
f 6/92/56 9/90/56 72/87/56 71/88/56
f 3/93/57 6/92/57 71/88/57 69/89/57
f 50/66/58 63/65/58 33/62/58
f 63/65/59 67/75/59 32/61/59
f 55/77/60 51/78/60 46/70/60
f 51/78/61 5/80/61 45/71/61
