# Blender v2.91.0 OBJ File: 'cloak_simple.blend'
# www.blender.org
mtllib cloak.mtl
o InsideMesh_Plane
v -1.000000 -3.403181 0.096775
v 1.000000 -3.403181 0.096775
v -1.000000 0.000000 -0.043798
v 1.000000 0.000000 -0.043798
v 1.178445 -2.072680 0.009230
v -1.000000 -2.076517 0.096775
v 1.000000 -2.076517 0.096775
v 1.512175 -3.157487 -0.384619
v -1.000000 -3.153907 0.096775
v 1.000000 -3.153908 0.096775
v 1.527322 -3.417290 -0.475340
v 1.228191 -3.409286 -0.085196
v 1.226521 -3.294516 -0.052429
v 1.223167 -3.155467 -0.047972
v 1.311208 -2.504234 -0.074890
v 1.403262 -3.413970 -0.282874
v 1.402260 -3.210213 -0.232105
v 1.400495 -3.156706 -0.229511
v 1.418659 -2.853509 -0.199756
v 0.000000 -3.403181 0.366015
v 0.000000 0.000000 0.225442
v 0.000000 -2.076517 0.366015
v 0.000000 -3.153907 0.366015
v 0.500000 -3.403181 0.329944
v 0.500000 0.000000 0.189370
v 0.500000 -2.076517 0.329944
v 0.500000 -3.153907 0.329944
v -0.500000 0.000000 0.189370
v -0.500000 -2.076517 0.329944
v -0.500000 -3.153907 0.329944
v -0.500000 -3.403181 0.329944
v -1.178445 -2.072680 0.009230
v -1.512175 -3.157487 -0.384619
v -1.527322 -3.417290 -0.475340
v -1.228191 -3.409286 -0.085196
v -1.226521 -3.294516 -0.052429
v -1.223167 -3.155467 -0.047972
v -1.311208 -2.504234 -0.074890
v -1.403262 -3.413970 -0.282874
v -1.402260 -3.210213 -0.232105
v -1.400495 -3.156706 -0.229511
v -1.418659 -2.853509 -0.199756
vt 0.658715 0.403836
vt 0.658715 1.000000
vt 0.821175 1.000000
vt 0.821175 0.403836
vt 0.658715 0.094520
vt 0.821175 0.094520
vt 0.879155 0.404938
vt 0.658715 0.022954
vt 0.821175 0.022954
vt 0.922292 0.281040
vt 0.893686 0.094072
vt 0.397077 0.044319
vt 0.347468 0.000000
vt 0.348102 0.094024
vt 0.387009 0.118826
vt 0.894776 0.054152
vt 0.333796 0.022954
vt 0.333796 0.094520
vt 0.496256 0.094520
vt 0.496256 0.022954
vt 0.957205 0.180764
vt 0.951303 0.093716
vt 0.895318 0.021201
vt 0.397463 0.208779
vt 0.397226 0.120093
vt 0.370912 0.206601
vt 0.455122 0.134629
vt 0.348996 0.190594
vt 0.333796 0.403836
vt 0.496256 0.403836
vt 0.333796 1.000000
vt 0.496256 1.000000
vt 0.171337 0.403836
vt 0.171337 1.000000
vt 0.171337 0.094520
vt 0.171337 0.022954
vt 0.397077 0.044319
vt 0.387009 0.118826
vt 0.348102 0.094024
vt 0.347468 0.000000
vt 0.098826 0.094072
vt 0.041208 0.093716
vt 0.035307 0.180764
vt 0.070219 0.281040
vt 0.397463 0.208779
vt 0.370912 0.206601
vt 0.397226 0.120093
vt 0.455122 0.134629
vt 0.348996 0.190594
vt 0.097736 0.054152
vt 0.097193 0.021201
vt 0.113357 0.404938
vn -0.4218 -0.0612 -0.9046
vn -0.4226 0.0000 -0.9063
vn -0.4386 -0.0607 -0.8966
vn -0.5202 0.0236 -0.8537
vn -0.4404 0.0000 -0.8978
vn -0.8288 0.1367 -0.5425
vn -0.5480 0.0049 -0.8365
vn 0.0720 0.0000 -0.9974
vn -0.6840 0.0783 -0.7253
vn -0.6061 0.2102 -0.7671
vn -0.7159 0.0065 -0.6982
vn -0.8115 0.0016 -0.5843
vn -0.8068 0.1054 -0.5814
vn -0.7395 0.1650 -0.6527
vn 0.0718 -0.0674 -0.9951
vn -0.0720 0.0000 -0.9974
vn -0.0718 -0.0674 -0.9951
vn 0.4218 -0.0612 -0.9046
vn 0.4226 0.0000 -0.9063
vn 0.8288 0.1367 -0.5425
vn 0.6840 0.0783 -0.7253
vn 0.7159 0.0065 -0.6982
vn 0.8115 0.0016 -0.5843
vn 0.8068 0.1054 -0.5814
vn 0.7395 0.1650 -0.6527
vn 0.6061 0.2102 -0.7671
vn 0.5480 0.0049 -0.8365
vn 0.4386 -0.0607 -0.8966
vn 0.4404 0.0000 -0.8978
vn 0.5202 0.0236 -0.8537
usemtl Inside
s off
f 26/1/1 25/2/1 4/3/1 7/4/1
f 27/5/2 26/1/2 7/4/2 10/6/2
f 4/3/3 5/7/3 7/4/3
f 24/8/2 27/5/2 10/6/2 2/9/2
f 10/6/4 5/7/4 15/10/4 14/11/4
f 7/4/5 5/7/5 10/6/5
f 8/12/6 11/13/6 16/14/6 17/15/6
f 2/9/7 10/6/7 14/11/7 13/16/7
f 31/17/8 30/18/8 23/19/8 20/20/8
f 14/11/9 15/10/9 19/21/9 18/22/9
f 12/23/10 2/9/10 13/16/10
f 14/24/11 18/25/11 17/15/11 13/26/11
f 18/25/12 8/12/12 17/15/12
f 18/25/13 19/27/13 8/12/13
f 16/14/14 12/28/14 13/26/14 17/15/14
f 30/18/8 29/29/8 22/30/8 23/19/8
f 29/29/15 28/31/15 21/32/15 22/30/15
f 20/20/16 23/19/16 27/5/16 24/8/16
f 23/19/16 22/30/16 26/1/16 27/5/16
f 22/30/17 21/32/17 25/2/17 26/1/17
f 6/33/18 3/34/18 28/31/18 29/29/18
f 9/35/19 6/33/19 29/29/19 30/18/19
f 1/36/19 9/35/19 30/18/19 31/17/19
f 33/37/20 40/38/20 39/39/20 34/40/20
f 37/41/21 41/42/21 42/43/21 38/44/21
f 37/45/22 36/46/22 40/38/22 41/47/22
f 41/47/23 40/38/23 33/37/23
f 41/47/24 33/37/24 42/48/24
f 39/39/25 40/38/25 36/46/25 35/49/25
f 36/50/26 1/36/26 35/51/26
f 9/35/27 1/36/27 36/50/27 37/41/27
f 6/33/28 32/52/28 3/34/28
f 6/33/29 9/35/29 32/52/29
f 38/44/30 32/52/30 9/35/30 37/41/30
