# Blender v2.91.0 OBJ File: 'cloak_medium.blend'
# www.blender.org
mtllib cloak.mtl
o Plane
v -1.000000 -3.403181 0.140573
v 1.000000 -3.403181 0.140573
v -1.000000 0.000000 0.000000
v 1.000000 0.000000 0.000000
v 1.470018 -2.072680 -1.183115
v -1.000000 -2.076517 0.140574
v 1.000000 -2.076517 0.140574
v 1.019476 -3.157487 -1.720385
v -1.050088 -3.153908 0.140573
v 1.050088 -3.153908 0.140573
v 0.942975 -3.417290 -1.771448
v 1.253270 -3.409286 -1.405886
v 1.292266 -3.294516 -1.394167
v 1.298770 -3.155467 -1.392287
v 1.312794 -2.504234 -1.464664
v 1.123837 -3.413970 -1.617680
v 1.180756 -3.210213 -1.599950
v 1.187113 -3.156706 -1.600596
v 1.202579 -2.853509 -1.586933
v 0.000000 -3.403181 0.409814
v 0.000000 0.000000 0.269240
v 0.000000 -2.076517 0.409814
v 0.000000 -3.153907 0.409814
v 0.500000 -3.403181 0.373742
v 0.500000 0.000000 0.233169
v 0.500000 -2.076517 0.373742
v 0.500000 -3.153907 0.373742
v -0.500000 0.000000 0.233169
v -0.500000 -2.076517 0.373742
v -0.500000 -3.153907 0.373742
v -0.500000 -3.403181 0.373742
v -1.365799 -3.154458 -1.183249
v -1.432235 -2.298396 -1.363356
v -1.347426 -3.405416 -1.169344
v -1.359921 -3.363092 -1.186037
v -1.202579 -2.853509 -1.586933
v -1.187113 -3.156706 -1.600596
v -1.180756 -3.210213 -1.599950
v -1.123837 -3.413970 -1.617680
v -1.312794 -2.504234 -1.464664
v -1.298770 -3.155467 -1.392287
v -1.292266 -3.294516 -1.394167
v 1.359921 -3.363092 -1.186037
v 1.347426 -3.405416 -1.169344
v 1.432235 -2.298396 -1.363356
v 1.365799 -3.154458 -1.183249
v -1.253270 -3.409286 -1.405886
v -0.942975 -3.417290 -1.771448
v -1.019476 -3.157487 -1.720385
v -1.470018 -2.072680 -1.183115
v 1.500006 -2.684164 -0.917284
v 1.423130 -3.381373 -0.952571
v 1.462494 -2.074858 -0.916402
v 1.412565 -3.404405 -0.959912
v 1.451259 -3.154177 -0.927859
v 1.491573 -1.074863 -1.019619
v 1.369704 -0.574269 -0.442792
v 1.336833 -3.393004 -0.280499
v 1.385158 -2.075718 -0.276252
v 1.410642 -2.937570 -0.220891
v 1.371899 -3.154030 -0.256800
v 1.331378 -3.403750 -0.282581
v -1.500006 -2.684164 -0.917284
v -1.423130 -3.381373 -0.952571
v -1.462494 -2.074858 -0.916402
v -1.412565 -3.404405 -0.959912
v -1.451259 -3.154177 -0.927859
v -1.491573 -1.074863 -1.019619
v -1.369704 -0.574269 -0.442792
v -1.336833 -3.393004 -0.280499
v -1.385158 -2.075718 -0.276252
v -1.410642 -2.937570 -0.220891
v -1.371899 -3.154030 -0.256800
v -1.331378 -3.403750 -0.282581
v -0.950000 -3.403181 0.103545
v 0.950000 -3.403181 0.103545
v -0.950000 0.000000 -0.030000
v 0.950000 0.000000 -0.030000
v 1.396517 -2.072680 -1.153959
v -0.950000 -2.076517 0.103545
v 0.950000 -2.076517 0.103545
v 0.968502 -3.157487 -1.664366
v -0.997584 -3.153908 0.103545
v 0.997584 -3.153908 0.103545
v 0.895827 -3.417290 -1.712875
v 1.190606 -3.409286 -1.365592
v 1.227652 -3.294516 -1.354458
v 1.233831 -3.155467 -1.352672
v 1.247154 -2.504234 -1.421431
v 1.067645 -3.413970 -1.566796
v 1.121718 -3.210213 -1.549952
v 1.127758 -3.156706 -1.550566
v 1.142450 -2.853509 -1.537586
v 0.000000 -3.403181 0.359323
v 0.000000 0.000000 0.225778
v 0.000000 -2.076517 0.359323
v 0.000000 -3.153907 0.359323
v 0.475000 -3.403181 0.325055
v 0.475000 0.000000 0.191510
v 0.475000 -2.076517 0.325055
v 0.475000 -3.153907 0.325055
v -0.475000 0.000000 0.191510
v -0.475000 -2.076517 0.325055
v -0.475000 -3.153907 0.325055
v -0.475000 -3.403181 0.325055
v -1.297509 -3.154458 -1.154087
v -1.360624 -2.298396 -1.325188
v -1.280055 -3.405416 -1.140877
v -1.291924 -3.363092 -1.156735
v -1.142450 -2.853509 -1.537586
v -1.127758 -3.156706 -1.550566
v -1.121718 -3.210213 -1.549952
v -1.067645 -3.413970 -1.566796
v -1.247154 -2.504234 -1.421431
v -1.233831 -3.155467 -1.352672
v -1.227652 -3.294516 -1.354458
v 1.291924 -3.363092 -1.156735
v 1.280055 -3.405416 -1.140877
v 1.360624 -2.298396 -1.325188
v 1.297509 -3.154458 -1.154087
v -1.190606 -3.409286 -1.365592
v -0.895827 -3.417290 -1.712875
v -0.968502 -3.157487 -1.664366
v -1.396517 -2.072680 -1.153959
v 1.425006 -2.684164 -0.901420
v 1.351973 -3.381373 -0.934942
v 1.389369 -2.074858 -0.900582
v 1.341936 -3.404405 -0.941916
v 1.378696 -3.154177 -0.911466
v 1.416994 -1.074863 -0.998638
v 1.301219 -0.574269 -0.450652
v 1.269992 -3.393004 -0.296474
v 1.315900 -2.075718 -0.292439
v 1.340110 -2.937570 -0.239847
v 1.303304 -3.154030 -0.273960
v 1.264809 -3.403750 -0.298452
v -1.425006 -2.684164 -0.901420
v -1.351973 -3.381373 -0.934942
v -1.389369 -2.074858 -0.900582
v -1.341936 -3.404405 -0.941916
v -1.378696 -3.154177 -0.911466
v -1.416994 -1.074863 -0.998638
v -1.301219 -0.574269 -0.450652
v -1.269992 -3.393004 -0.296474
v -1.315900 -2.075718 -0.292439
v -1.340110 -2.937570 -0.239847
v -1.303304 -3.154030 -0.273960
v -1.264809 -3.403750 -0.298452
vt 0.716682 0.261075
vt 0.859545 0.261075
vt 0.859545 0.665415
vt 0.716682 0.665415
vt 0.716682 0.051286
vt 0.873857 0.051286
vt 0.573820 0.864215
vt 0.225138 0.910792
vt 0.225272 0.772684
vt 0.477390 0.717503
vt 0.716682 0.002747
vt 0.859545 0.002747
vt 0.044226 0.910792
vt 0.044206 0.779129
vt 0.080553 0.791026
vt 0.865110 0.050589
vt 0.911192 0.040322
vt 0.894928 0.000646
vt 0.843252 0.000000
vt 0.002369 0.910792
vt 0.004078 0.771276
vt 0.430957 0.002747
vt 0.573820 0.002747
vt 0.573820 0.051286
vt 0.430957 0.051286
vt 0.043964 0.402904
vt 0.043756 0.333884
vt 0.094668 0.338411
vt 0.153317 0.378922
vt 0.001344 0.398398
vt 0.020616 0.402281
vt 0.009101 0.471241
vt 0.001994 0.476772
vt 0.034772 0.334098
vt 0.913008 0.050741
vt 0.917427 0.109779
vt 0.000557 0.328223
vt 0.573820 0.261075
vt 0.430957 0.261075
vt 0.573820 0.665415
vt 0.430957 0.665415
vt 0.288094 0.261075
vt 0.288094 0.665415
vt 0.273783 0.051286
vt 0.288094 0.002747
vt 0.043964 0.402904
vt 0.043756 0.333884
vt 0.034772 0.334098
vt 0.020616 0.402281
vt 0.002164 0.546164
vt 0.002273 0.770586
vt 0.004078 0.771276
vt 0.006031 0.548596
vt 0.001994 0.476772
vt 0.009101 0.471241
vt 0.000557 0.328223
vt 0.001344 0.398398
vt 0.234631 0.050741
vt 0.282530 0.050589
vt 0.236448 0.040322
vt 0.044134 0.472165
vt 0.187881 0.412489
vt 0.153317 0.378922
vt 0.225417 0.560580
vt 0.225782 0.472209
vt 0.123104 0.560288
vt 0.230213 0.109779
vt 0.006031 0.548596
vt 0.002164 0.546164
vt 0.044134 0.472165
vt 0.187881 0.412489
vt 0.094668 0.338411
vt 0.304388 0.000000
vt 0.252711 0.000646
vt 0.044181 0.556784
vt 0.002273 0.770586
vt 0.044181 0.556784
vt 0.123104 0.560288
vt 0.225417 0.560580
vt 0.225782 0.472209
vt 0.393332 0.526381
vt 0.954228 0.770586
vt 0.955787 0.771276
vt 0.859545 0.910792
vt 0.393332 0.526381
vt 0.044206 0.779129
vt 0.080553 0.791026
vt 0.225272 0.772684
vt 0.477390 0.717503
vt 0.044226 0.910792
vt 0.002369 0.910792
vt 0.225138 0.910792
vt 0.573820 0.864215
vt 0.288094 0.864215
vt 0.302381 0.854275
vt 0.202029 0.714899
vt 0.182461 0.717503
vt 0.845259 0.898523
vt 0.935208 0.765328
vt 0.957245 0.552126
vt 0.977425 0.546164
vt 0.931911 0.398398
vt 0.914006 0.411748
vt 0.878873 0.345083
vt 0.894928 0.328223
vt 0.573820 1.000000
vt 0.573820 0.983271
vt 0.709539 0.971917
vt 0.716682 0.988048
vt 0.865110 0.294193
vt 0.850545 0.312755
vt 0.900247 0.354761
vt 0.917427 0.338411
vt 0.859545 0.864215
vt 0.845259 0.854275
vt 0.709539 0.927669
vt 0.716682 0.941472
vt 1.000000 0.526381
vt 0.978691 0.533333
vt 0.945611 0.714899
vt 0.965179 0.717503
vt 0.164594 0.412489
vt 0.153798 0.472209
vt 0.174799 0.481869
vt 0.185055 0.425136
vt 0.900247 0.109779
vt 0.930163 0.177790
vt 0.948918 0.177790
vt 0.191853 0.004729
vt 0.193412 0.002636
vt 0.212432 0.002636
vt 0.210951 0.004729
vt 0.188826 0.476772
vt 0.215729 0.398398
vt 0.233633 0.411748
vt 0.208076 0.486204
vt 0.198721 0.378922
vt 0.217476 0.393247
vt 0.198721 0.177790
vt 0.217476 0.177790
vt 0.247393 0.109779
vt 0.000000 0.277275
vt 0.043625 0.294193
vt 0.043625 0.312755
vt 0.000000 0.296682
vt 0.829780 0.296682
vt 0.843252 0.277275
vt 0.430957 0.941472
vt 0.438100 0.927669
vt 0.000000 0.277275
vt 0.000000 0.296682
vt 0.043625 0.312755
vt 0.043625 0.294193
vt 0.193412 0.770586
vt 0.170214 0.546164
vt 0.190395 0.552126
vt 0.212432 0.765328
vt 0.252711 0.328223
vt 0.304388 0.277275
vt 0.317859 0.296682
vt 0.268767 0.345083
vt 0.958814 0.476772
vt 0.939564 0.486204
vt 0.430957 0.988048
vt 0.438100 0.971917
vt 0.282530 0.294193
vt 0.230213 0.338411
vt 0.247393 0.354761
vt 0.297094 0.312755
vt 0.147640 0.526381
vt 0.168949 0.533333
vt 0.573820 0.953423
vt 0.573820 0.939023
vt 0.153798 0.261822
vt 0.147640 0.456117
vt 0.168949 0.456117
vt 0.174799 0.261822
vt 0.993841 0.261822
vt 0.972840 0.261822
vt 0.978691 0.456117
vt 1.000000 0.456117
vt 0.191853 0.771276
vt 0.210951 0.765983
vt 0.302381 0.898523
vt 0.288094 0.910792
vt 0.948918 0.378922
vt 0.930163 0.393247
vt 0.962584 0.425136
vt 0.983046 0.412489
vt 0.972840 0.481869
vt 0.993841 0.472209
vt 0.709539 0.261075
vt 0.709539 0.665415
vt 0.845259 0.665415
vt 0.845259 0.261075
vt 0.709539 0.051286
vt 0.858855 0.051286
vt 0.573820 0.854275
vt 0.477390 0.714899
vt 0.225272 0.767320
vt 0.225138 0.898523
vt 0.709539 0.002747
vt 0.845259 0.002747
vt 0.044226 0.898523
vt 0.080553 0.784746
vt 0.044206 0.773443
vt 0.850545 0.050589
vt 0.829780 0.000000
vt 0.878873 0.000646
vt 0.894323 0.040322
vt 0.002369 0.898523
vt 0.004078 0.765983
vt 0.438100 0.002747
vt 0.438100 0.051286
vt 0.573820 0.051286
vt 0.573820 0.002747
vt 0.043964 0.416029
vt 0.153317 0.393247
vt 0.094668 0.354761
vt 0.043756 0.350460
vt 0.001344 0.411748
vt 0.001994 0.486204
vt 0.009101 0.480950
vt 0.020616 0.415437
vt 0.034772 0.350664
vt 0.896049 0.050741
vt 0.000557 0.345083
vt 0.438100 0.261075
vt 0.573820 0.261075
vt 0.438100 0.665415
vt 0.573820 0.665415
vt 0.302381 0.261075
vt 0.302381 0.665415
vt 0.288785 0.051286
vt 0.302381 0.002747
vt 0.043964 0.416029
vt 0.020616 0.415437
vt 0.034772 0.350664
vt 0.043756 0.350460
vt 0.002164 0.552126
vt 0.006031 0.554437
vt 0.004078 0.765983
vt 0.002273 0.765328
vt 0.001994 0.486204
vt 0.009101 0.480950
vt 0.000557 0.345083
vt 0.001344 0.411748
vt 0.251591 0.050741
vt 0.253317 0.040322
vt 0.297094 0.050589
vt 0.044134 0.481827
vt 0.187881 0.425136
vt 0.153317 0.393247
vt 0.225417 0.565822
vt 0.123104 0.565544
vt 0.225782 0.481869
vt 0.002164 0.552126
vt 0.006031 0.554437
vt 0.044134 0.481827
vt 0.187881 0.425136
vt 0.094668 0.354761
vt 0.268767 0.000646
vt 0.317859 0.000000
vt 0.044181 0.562216
vt 0.002273 0.765328
vt 0.044181 0.562216
vt 0.123104 0.565544
vt 0.225417 0.565822
vt 0.225782 0.481869
vt 0.393332 0.533333
vt 0.936688 0.765983
vt 0.393332 0.533333
vt 0.044206 0.773443
vt 0.080553 0.784746
vt 0.225272 0.767320
vt 0.477390 0.714899
vt 0.044226 0.898523
vt 0.002369 0.898523
vt 0.225138 0.898523
vt 0.573820 0.854275
vn 0.4218 0.0612 0.9046
vn 0.4059 0.0094 0.9139
vn 0.7690 0.0580 0.6366
vn 0.4055 -0.0407 0.9132
vn 0.7550 -0.2366 0.6115
vn 0.7145 0.0478 0.6980
vn 0.6187 -0.0619 -0.7832
vn 0.7695 -0.1642 0.6172
vn -0.0720 0.0000 0.9974
vn 0.8563 -0.0580 -0.5132
vn 0.8814 -0.3004 -0.3645
vn 0.8743 -0.0553 -0.4823
vn 0.5798 -0.0787 -0.8109
vn 0.5814 0.0070 -0.8136
vn 0.8310 -0.2023 -0.5181
vn -0.0718 0.0674 0.9951
vn 0.0720 0.0000 0.9974
vn 0.0718 0.0674 0.9951
vn -0.4218 0.0612 0.9046
vn -0.4059 0.0094 0.9139
vn -0.4055 -0.0407 0.9132
vn -0.8743 -0.0553 -0.4823
vn -0.8866 -0.4502 0.1064
vn -0.8943 -0.3546 -0.2730
vn -0.8310 -0.2023 -0.5181
vn -0.5798 -0.0787 -0.8109
vn -0.9498 -0.0296 -0.3114
vn -0.8847 -0.1226 -0.4498
vn -0.8814 -0.3004 -0.3645
vn -0.9977 0.0614 0.0286
vn -0.9580 -0.1283 -0.2565
vn -0.5814 0.0070 -0.8136
vn 0.8943 -0.3546 -0.2730
vn 0.9498 -0.0296 -0.3114
vn 0.8847 -0.1226 -0.4498
vn -0.8563 -0.0580 -0.5132
vn -0.6187 -0.0619 -0.7832
vn -0.9547 -0.0560 -0.2924
vn 0.8866 -0.4502 0.1064
vn 0.9547 -0.0560 -0.2924
vn 0.9580 -0.1283 -0.2565
vn 0.9977 0.0614 0.0286
vn 0.9993 -0.0262 0.0280
vn 0.6985 -0.4607 0.5476
vn 0.9821 -0.1456 0.1199
vn 0.9864 -0.1323 0.0972
vn 0.9901 0.0473 0.1325
vn 0.9875 0.0115 0.1569
vn -0.9993 -0.0262 0.0280
vn -0.9821 -0.1456 0.1199
vn -0.9864 -0.1323 0.0972
vn -0.9901 0.0473 0.1325
vn -0.9875 0.0115 0.1569
vn -0.7695 -0.1642 0.6172
vn -0.7550 -0.2366 0.6115
vn -0.7145 0.0478 0.6980
vn -0.7690 0.0580 0.6366
vn -0.2254 0.6719 -0.7055
vn -0.0005 -1.0000 0.0010
vn 0.0000 -1.0000 0.0010
vn 0.0118 -0.9998 0.0154
vn 0.0000 -1.0000 -0.0000
vn -0.5598 0.5815 -0.5903
vn -0.0000 1.0000 0.0000
vn -0.0615 0.7391 -0.6708
vn 0.3327 0.6125 -0.7170
vn -0.5391 0.4158 -0.7324
vn 0.2316 -0.0687 0.9704
vn -0.0073 -0.9999 0.0139
vn 0.4176 0.5742 -0.7042
vn 0.5391 0.4158 -0.7324
vn 0.7186 0.3242 -0.6153
vn 0.0104 -0.9999 0.0099
vn -0.7186 0.3242 -0.6153
vn -0.0104 -0.9999 0.0099
vn 0.0073 -0.9999 0.0139
vn -0.0118 -0.9998 0.0154
vn 0.5598 0.5815 -0.5903
vn 0.0615 0.7391 -0.6708
vn 0.2254 0.6719 -0.7055
vn 0.3168 0.1561 -0.9356
vn -0.3168 0.1561 -0.9356
vn -0.0082 -0.9998 -0.0182
vn -0.4176 0.5742 -0.7042
vn -0.0015 -1.0000 0.0045
vn 0.0015 -1.0000 0.0045
vn -0.3327 0.6125 -0.7170
vn 0.9846 -0.0268 -0.1728
vn 0.9444 -0.0908 -0.3159
vn -0.9444 -0.0908 -0.3159
vn -0.9846 -0.0268 -0.1728
vn -0.4219 -0.0582 -0.9048
vn -0.4059 -0.0090 -0.9139
vn -0.7691 -0.0551 -0.6367
vn -0.4056 0.0387 -0.9132
vn -0.7571 0.2254 -0.6132
vn -0.7146 -0.0454 -0.6980
vn -0.6188 0.0588 0.7833
vn -0.7705 0.1562 -0.6180
vn 0.0720 0.0000 -0.9974
vn -0.8564 0.0551 0.5133
vn -0.8853 0.2867 0.3661
vn -0.8744 0.0525 0.4823
vn -0.5800 0.0748 0.8112
vn -0.5814 -0.0067 0.8136
vn -0.8327 0.1926 0.5191
vn 0.0718 -0.0640 -0.9954
vn -0.0720 0.0000 -0.9974
vn -0.0718 -0.0640 -0.9954
vn 0.4219 -0.0582 -0.9048
vn 0.4059 -0.0090 -0.9139
vn 0.4056 0.0387 -0.9132
vn 0.8744 0.0525 0.4823
vn 0.8955 0.4320 -0.1074
vn 0.8998 0.3389 0.2747
vn 0.8327 0.1926 0.5191
vn 0.5800 0.0748 0.8112
vn 0.9498 0.0282 0.3115
vn 0.8853 0.1165 0.4502
vn 0.8853 0.2867 0.3661
vn 0.9979 -0.0583 -0.0287
vn 0.9588 0.1220 0.2567
vn 0.5814 -0.0067 0.8136
vn -0.8998 0.3389 0.2747
vn -0.9498 0.0282 0.3115
vn -0.8853 0.1165 0.4502
vn 0.8564 0.0551 0.5133
vn 0.6188 0.0588 0.7833
vn 0.9548 0.0532 0.2924
vn -0.8955 0.4320 -0.1074
vn -0.9548 0.0532 0.2924
vn -0.9588 0.1220 0.2567
vn -0.9979 -0.0583 -0.0287
vn -0.9993 0.0249 -0.0280
vn -0.7058 0.4423 -0.5533
vn -0.9831 0.1384 -0.1200
vn -0.9873 0.1258 -0.0973
vn -0.9902 -0.0449 -0.1325
vn -0.9876 -0.0110 -0.1569
vn 0.9993 0.0249 -0.0280
vn 0.9831 0.1384 -0.1200
vn 0.9873 0.1258 -0.0973
vn 0.9902 -0.0449 -0.1325
vn 0.9876 -0.0110 -0.1569
vn 0.7705 0.1562 -0.6180
vn 0.7571 0.2254 -0.6132
vn 0.7146 -0.0454 -0.6980
vn 0.7691 -0.0551 -0.6367
vn 0.9846 0.0255 0.1728
vn 0.9448 0.0863 0.3161
vn -0.9448 0.0863 0.3161
vn -0.9846 0.0255 0.1728
usemtl Outside
f 26/1/1 7/2/1 4/3/1 25/4/1
f 27/5/2 10/6/2 7/2/2 26/1/2
f 4/7/3 7/8/3 59/9/3 57/10/3
f 24/11/4 2/12/4 10/6/4 27/5/4
f 10/13/5 61/14/5 60/15/5
f 7/8/6 10/13/6 60/15/6 59/9/6
f 8/16/7 17/17/7 16/18/7 11/19/7
f 2/20/8 58/21/8 61/14/8 10/13/8
f 31/22/9 20/23/9 23/24/9 30/25/9
f 14/26/10 18/27/10 19/28/10 15/29/10
f 12/30/11 13/31/11 43/32/11 44/33/11
f 14/26/12 13/31/12 17/34/12 18/27/12
f 18/35/13 17/17/13 8/16/13
f 18/35/14 8/16/14 19/36/14
f 16/37/15 17/34/15 13/31/15 12/30/15
f 30/25/9 23/24/9 22/38/9 29/39/9
f 29/39/16 22/38/16 21/40/16 28/41/16
f 20/23/17 24/11/17 27/5/17 23/24/17
f 23/24/17 27/5/17 26/1/17 22/38/17
f 22/38/18 26/1/18 25/4/18 21/40/18
f 6/42/19 29/39/19 28/41/19 3/43/19
f 9/44/20 30/25/20 29/39/20 6/42/20
f 1/45/21 31/22/21 30/25/21 9/44/21
f 41/46/22 37/47/22 38/48/22 42/49/22
f 66/50/23 74/51/23 70/52/23 64/53/23
f 34/54/24 66/50/24 64/53/24 35/55/24
f 39/56/25 47/57/25 42/49/25 38/48/25
f 37/58/26 49/59/26 38/60/26
f 32/61/27 41/46/27 42/49/27 35/55/27
f 33/62/28 40/63/28 41/46/28 32/61/28
f 47/57/29 34/54/29 35/55/29 42/49/29
f 65/64/30 50/65/30 63/66/30
f 32/61/31 63/66/31 33/62/31
f 37/58/32 36/67/32 49/59/32
f 44/33/33 43/32/33 52/68/33 54/69/33
f 46/70/34 43/32/34 13/31/34 14/26/34
f 45/71/35 46/70/35 14/26/35 15/29/35
f 41/46/36 40/63/36 36/72/36 37/47/36
f 49/59/37 48/73/37 39/74/37 38/60/37
f 67/75/38 32/61/38 35/55/38 64/53/38
f 54/69/39 52/68/39 58/21/39 62/76/39
f 55/77/40 52/68/40 43/32/40 46/70/40
f 45/71/41 51/78/41 46/70/41
f 53/79/42 51/78/42 5/80/42
f 56/81/43 53/79/43 5/80/43
f 62/82/44 58/83/44 2/84/44
f 61/14/45 58/21/45 52/68/45 55/77/45
f 60/15/46 61/14/46 55/77/46 51/78/46
f 59/9/47 60/15/47 51/78/47 53/79/47
f 57/10/48 59/9/48 53/79/48 56/81/48
f 68/85/49 50/65/49 65/64/49
f 73/86/50 67/75/50 64/53/50 70/52/50
f 72/87/51 63/66/51 67/75/51 73/86/51
f 71/88/52 65/64/52 63/66/52 72/87/52
f 69/89/53 68/85/53 65/64/53 71/88/53
f 9/90/54 73/86/54 70/52/54 1/91/54
f 73/86/55 9/90/55 72/87/55
f 6/92/56 71/88/56 72/87/56 9/90/56
f 3/93/57 69/89/57 71/88/57 6/92/57
f 3/94/58 77/95/58 143/96/58 69/97/58
f 2/84/59 76/98/59 136/99/59 62/82/59
f 62/82/60 136/99/60 128/100/60 54/101/60
f 12/102/61 86/103/61 90/104/61 16/105/61
f 20/106/62 94/107/62 98/108/62 24/109/62
f 8/110/63 82/111/63 93/112/63 19/113/63
f 4/114/64 78/115/64 99/116/64 25/117/64
f 56/118/65 130/119/65 131/120/65 57/121/65
f 33/122/66 50/123/66 124/124/66 107/125/66
f 24/109/62 98/108/62 76/98/62 2/84/62
f 19/36/67 93/126/67 89/127/67 15/128/67
f 70/129/68 74/130/68 148/131/68 144/132/68
f 34/133/69 47/134/69 121/135/69 108/136/69
f 40/137/70 33/122/70 107/125/70 114/138/70
f 36/67/71 40/139/71 114/140/71 110/141/71
f 48/142/72 49/143/72 123/144/72 122/145/72
f 16/105/73 90/104/73 85/146/73 11/147/73
f 28/148/64 102/149/64 77/95/64 3/94/64
f 11/150/74 85/151/74 82/152/74 8/153/74
f 74/154/60 66/155/60 140/156/60 148/157/60
f 39/158/75 48/159/75 122/160/75 113/161/75
f 44/162/76 118/163/76 86/103/76 12/102/76
f 31/164/62 105/165/62 94/107/62 20/106/62
f 47/134/77 39/158/77 113/161/77 121/135/77
f 49/166/78 36/167/78 110/168/78 123/169/78
f 68/170/79 69/97/79 143/96/79 142/171/79
f 21/172/64 95/173/64 102/149/64 28/148/64
f 57/121/80 131/120/80 78/115/80 4/114/80
f 25/117/64 99/116/64 95/173/64 21/172/64
f 50/174/81 68/175/81 142/176/81 124/177/81
f 5/178/82 79/179/82 130/180/82 56/181/82
f 70/182/83 144/183/83 75/184/83 1/185/83
f 15/186/84 89/187/84 119/188/84 45/189/84
f 66/155/85 34/133/85 108/136/85 140/156/85
f 1/185/62 75/184/62 105/165/62 31/164/62
f 54/101/86 128/100/86 118/163/86 44/162/86
f 45/189/87 119/188/87 79/190/87 5/191/87
f 5/80/88 51/78/88 45/71/88
f 51/78/89 55/77/89 46/70/89
f 67/75/90 63/66/90 32/61/90
f 63/66/91 50/65/91 33/62/91
usemtl Inside
f 100/192/92 99/193/92 78/194/92 81/195/92
f 101/196/93 100/192/93 81/195/93 84/197/93
f 78/198/94 131/199/94 133/200/94 81/201/94
f 98/202/95 101/196/95 84/197/95 76/203/95
f 84/204/96 134/205/96 135/206/96
f 81/201/97 133/200/97 134/205/97 84/204/97
f 82/207/98 85/208/98 90/209/98 91/210/98
f 76/211/99 84/204/99 135/206/99 132/212/99
f 105/213/100 104/214/100 97/215/100 94/216/100
f 88/217/101 89/218/101 93/219/101 92/220/101
f 86/221/102 118/222/102 117/223/102 87/224/102
f 88/217/103 92/220/103 91/225/103 87/224/103
f 92/226/104 82/207/104 91/210/104
f 92/226/105 93/126/105 82/207/105
f 90/227/106 86/221/106 87/224/106 91/225/106
f 104/214/100 103/228/100 96/229/100 97/215/100
f 103/228/107 102/230/107 95/231/107 96/229/107
f 94/216/108 97/215/108 101/196/108 98/202/108
f 97/215/108 96/229/108 100/192/108 101/196/108
f 96/229/109 95/231/109 99/193/109 100/192/109
f 80/232/110 77/233/110 102/230/110 103/228/110
f 83/234/111 80/232/111 103/228/111 104/214/111
f 75/235/112 83/234/112 104/214/112 105/213/112
f 115/236/113 116/237/113 112/238/113 111/239/113
f 140/240/114 138/241/114 144/242/114 148/243/114
f 108/244/115 109/245/115 138/241/115 140/240/115
f 113/246/116 112/238/116 116/237/116 121/247/116
f 111/248/117 112/249/117 123/250/117
f 106/251/118 109/245/118 116/237/118 115/236/118
f 107/252/119 106/251/119 115/236/119 114/253/119
f 121/247/120 116/237/120 109/245/120 108/244/120
f 139/254/121 137/255/121 124/256/121
f 107/252/122 137/255/122 106/251/122
f 111/248/123 123/250/123 110/141/123
f 118/222/124 128/257/124 126/258/124 117/223/124
f 120/259/125 88/217/125 87/224/125 117/223/125
f 119/260/126 89/218/126 88/217/126 120/259/126
f 115/236/127 111/239/127 110/261/127 114/253/127
f 123/250/128 112/249/128 113/262/128 122/263/128
f 141/264/129 138/241/129 109/245/129 106/251/129
f 128/257/130 136/265/130 132/212/130 126/258/130
f 129/266/131 120/259/131 117/223/131 126/258/131
f 120/259/132 125/267/132 119/260/132
f 127/268/133 79/269/133 125/267/133
f 130/270/134 79/269/134 127/268/134
f 136/99/135 76/98/135 132/271/135
f 135/206/136 129/266/136 126/258/136 132/212/136
f 134/205/137 125/267/137 129/266/137 135/206/137
f 133/200/138 127/268/138 125/267/138 134/205/138
f 131/199/139 130/270/139 127/268/139 133/200/139
f 142/272/140 139/254/140 124/256/140
f 147/273/141 144/242/141 138/241/141 141/264/141
f 146/274/142 147/273/142 141/264/142 137/255/142
f 145/275/143 146/274/143 137/255/143 139/254/143
f 143/276/144 145/275/144 139/254/144 142/272/144
f 83/277/145 75/278/145 144/242/145 147/273/145
f 147/273/146 146/274/146 83/277/146
f 80/279/147 83/277/147 146/274/147 145/275/147
f 77/280/148 80/279/148 145/275/148 143/276/148
f 124/256/149 137/255/149 107/252/149
f 137/255/150 141/264/150 106/251/150
f 129/266/151 125/267/151 120/259/151
f 125/267/152 79/269/152 119/260/152
