# Blender v2.77 (sub 0) OBJ File: ''
# www.blender.org
mtllib koid.mtl
o Icosphere
v 0.000000 -0.500000 0.000000
v 0.361800 -0.223607 0.262860
v -0.138193 -0.223607 0.425320
v -0.447212 -0.223607 0.000000
v -0.138193 -0.223607 -0.425320
v 0.361800 -0.223607 -0.262860
v 0.138193 0.223607 0.425320
v -0.361800 0.223607 0.262860
v -0.361800 0.223607 -0.262860
v 0.138193 0.223607 -0.425320
v 0.447212 0.223607 0.000000
v 0.000000 0.500000 0.000000
vt 0.7038 0.0129
vt 0.2071 0.2313
vt 0.9893 0.2798
vt 0.4241 0.2822
vt 0.7989 0.3528
vt 0.6141 0.3542
vt 0.5204 0.6423
vt 0.0779 0.2355
vt 0.3355 0.6409
vt 0.0204 0.4562
vt 0.1456 0.7129
vt 0.8351 0.7097
vt 0.6370 0.7251
vt 0.9881 0.8507
vt 0.4253 0.9822
vt 0.5591 0.9871
vn 0.1876 -0.7947 0.5774
vn 0.6071 -0.7947 0.0000
vn -0.4911 -0.7947 0.3568
vn -0.4911 -0.7947 -0.3568
vn 0.1876 -0.7947 -0.5774
vn 0.9822 -0.1876 0.0000
vn 0.3035 -0.1876 0.9342
vn -0.7946 -0.1876 0.5774
vn -0.7946 -0.1876 -0.5774
vn 0.3035 -0.1876 -0.9342
vn 0.7946 0.1876 0.5774
vn -0.3035 0.1876 0.9342
vn -0.9822 0.1876 0.0000
vn -0.3035 0.1876 -0.9342
vn 0.7946 0.1876 -0.5774
vn 0.4911 0.7947 0.3568
vn -0.1876 0.7947 0.5774
vn -0.6071 0.7947 0.0000
vn -0.1876 0.7947 -0.5774
vn 0.4911 0.7947 -0.3568
usemtl Material.001
f 1/1/1 2/2/1 3/3/1
f 2/2/2 1/1/2 6/4/2
f 1/1/3 3/3/3 4/5/3
f 1/1/4 4/5/4 5/6/4
f 1/1/5 5/6/5 6/4/5
f 2/2/6 6/4/6 11/7/6
f 3/8/7 2/2/7 7/9/7
f 4/10/8 3/8/8 8/11/8
f 5/6/9 4/5/9 9/12/9
f 6/4/10 5/6/10 10/13/10
f 2/2/11 11/7/11 7/9/11
f 3/8/12 7/9/12 8/11/12
f 4/5/13 8/14/13 9/12/13
f 5/6/14 9/12/14 10/13/14
f 6/4/15 10/13/15 11/7/15
f 7/9/16 11/7/16 12/15/16
f 8/11/17 7/9/17 12/15/17
f 9/12/18 8/14/18 12/16/18
f 10/13/19 9/12/19 12/16/19
f 11/7/20 10/13/20 12/15/20
