# Blender v2.77 (sub 0) OBJ File: ''
# www.blender.org
mtllib crystal_standing.mtl
o Sphere_Sphere.001
v 0.658755 0.660923 0.500000
v 0.658755 0.236982 0.500000
v 0.500000 0.025011 0.500000
v 0.579378 0.660923 0.637486
v 0.579378 0.236982 0.637486
v 0.420622 0.660923 0.637486
v 0.420622 0.236982 0.637486
v 0.341245 0.660923 0.500000
v 0.341245 0.236982 0.500000
v 0.420622 0.660923 0.362514
v 0.420622 0.236982 0.362514
v 0.500000 0.872893 0.500000
v 0.579378 0.660923 0.362514
v 0.579378 0.236982 0.362514
vn 0.7266 -0.5442 0.4195
vn 0.8660 0.0000 0.5000
vn 0.7266 0.5442 0.4195
vn 0.0000 -0.5442 0.8390
vn 0.0000 0.0000 1.0000
vn 0.0000 0.5442 0.8390
vn -0.7266 -0.5442 0.4195
vn -0.8660 0.0000 0.5000
vn -0.7266 0.5442 0.4195
vn -0.7266 -0.5442 -0.4195
vn -0.8660 0.0000 -0.5000
vn -0.7266 0.5442 -0.4195
vn 0.0000 -0.5442 -0.8390
vn 0.0000 0.0000 -1.0000
vn 0.0000 0.5442 -0.8390
vn 0.7266 -0.5442 -0.4195
vn 0.8660 0.0000 -0.5000
vn 0.7266 0.5442 -0.4195
usemtl Material.001
s off
f 3//1 2//1 5//1
f 2//2 1//2 4//2 5//2
f 1//3 12//3 4//3
f 3//4 5//4 7//4
f 5//5 4//5 6//5 7//5
f 4//6 12//6 6//6
f 3//7 7//7 9//7
f 7//8 6//8 8//8 9//8
f 6//9 12//9 8//9
f 3//10 9//10 11//10
f 9//11 8//11 10//11 11//11
f 8//12 12//12 10//12
f 3//13 11//13 14//13
f 11//14 10//14 13//14 14//14
f 10//15 12//15 13//15
f 3//16 14//16 2//16
f 14//17 13//17 1//17 2//17
f 13//18 12//18 1//18
