# Blender v2.77 (sub 0) OBJ File: ''
# www.blender.org
mtllib orb_crystal.mtl
o Icosphere
v 0.000000 -0.300000 0.000000
v 0.217080 -0.134164 0.157716
v -0.082915 -0.134164 0.255192
v -0.268328 -0.134164 0.000000
v -0.082915 -0.134164 -0.255192
v 0.217080 -0.134164 -0.157716
v 0.082915 0.134164 0.255192
v -0.217080 0.134164 0.157716
v -0.217080 0.134164 -0.157716
v 0.082915 0.134164 -0.255192
v 0.268328 0.134164 0.000000
v 0.000000 0.300000 0.000000
vt 0.5000 0.5000
vt 0.8921 0.2152
vt 0.3503 0.0391
vt 0.8921 0.7848
vt 0.0154 0.5000
vt 0.3503 0.9609
vt 0.2152 0.2577
vt 0.7848 0.2577
vt 0.5000 0.7423
vt 0.3503 0.2577
vt 0.8921 0.2577
vt 0.6497 0.7423
vt 0.5000 0.2577
vt 0.0391 0.2577
vt 0.2152 0.7423
vt 0.9609 0.2577
vt 0.7848 0.7423
vt 0.8921 0.2577
vt 0.3503 0.2577
vt 0.6497 0.7423
vt 0.0391 0.7423
vt 0.1079 0.7423
vt 0.1079 0.7423
vt 0.9609 0.7423
vt 0.6497 0.0391
vt 0.9846 0.5000
vt 0.5000 0.5000
vt 0.1079 0.2152
vt 0.1079 0.7848
vt 0.6497 0.9609
vn 0.1876 -0.7947 0.5774
vn 0.6071 -0.7947 0.0000
vn -0.4911 -0.7947 0.3568
vn -0.4911 -0.7947 -0.3568
vn 0.1876 -0.7947 -0.5774
vn 0.9822 -0.1876 0.0000
vn 0.3035 -0.1876 0.9342
vn -0.7946 -0.1876 0.5774
vn -0.7946 -0.1876 -0.5774
vn 0.3035 -0.1876 -0.9342
vn 0.7946 0.1876 0.5774
vn -0.3035 0.1876 0.9342
vn -0.9822 0.1876 0.0000
vn -0.3035 0.1876 -0.9342
vn 0.7946 0.1876 -0.5774
vn 0.4911 0.7947 0.3568
vn -0.1876 0.7947 0.5774
vn -0.6071 0.7947 0.0000
vn -0.1876 0.7947 -0.5774
vn 0.4911 0.7947 -0.3568
usemtl Material.001
f 1/1/1 2/2/1 3/3/1
f 2/2/2 1/1/2 6/4/2
f 1/1/3 3/3/3 4/5/3
f 1/1/4 4/5/4 5/6/4
f 1/1/5 5/6/5 6/4/5
f 2/7/6 6/8/6 11/9/6
f 3/10/7 2/11/7 7/12/7
f 4/13/8 3/14/8 8/15/8
f 5/16/9 4/13/9 9/17/9
f 6/18/10 5/19/10 10/20/10
f 2/7/11 11/9/11 7/21/11
f 3/10/12 7/12/12 8/22/12
f 4/13/13 8/15/13 9/17/13
f 5/19/14 9/23/14 10/20/14
f 6/8/15 10/24/15 11/9/15
f 7/25/16 11/26/16 12/27/16
f 8/28/17 7/25/17 12/27/17
f 9/29/18 8/28/18 12/27/18
f 10/30/19 9/29/19 12/27/19
f 11/26/20 10/30/20 12/27/20
