# Blender v2.91.0 OBJ File: ''
# www.blender.org
mtllib pedestal.mtl
o Plane
v 0.953790 0.516543 1.000005
v 0.953790 0.391543 0.875005
v 0.953790 0.516543 0.875005
v 0.045704 0.516543 0.875005
v 0.043472 0.391543 0.999661
v 0.045704 0.516543 1.000000
v 0.641147 0.516543 0.686517
v 0.358348 0.516543 0.686517
v 0.668925 0.516543 0.791959
v 0.641147 0.391543 0.686517
v 0.358348 0.391543 0.686517
v 0.330570 0.516543 0.791959
v 0.727032 0.516543 0.841845
v 0.668925 0.391543 0.791959
v 0.330570 0.391543 0.791959
v 0.272462 0.516543 0.841845
v 0.784180 0.516543 0.874627
v 0.727032 0.391543 0.841845
v 0.272462 0.391543 0.841845
v 0.215315 0.516543 0.874627
v 0.784180 0.391543 0.874627
v 0.781343 0.181962 0.874784
v 0.562970 0.394408 0.877144
v 0.562247 0.000000 1.000005
v 0.437247 0.000000 0.875004
v 0.562247 0.000000 0.875004
v 0.437247 0.908086 0.875005
v 0.562247 0.908086 1.000005
v 0.562247 0.908086 0.875005
v 0.562247 0.312644 0.686517
v 0.562247 0.595442 0.686517
v 0.562247 0.284865 0.791959
v 0.437247 0.312644 0.686517
v 0.437247 0.623221 0.791959
v 0.562247 0.623221 0.791959
v 0.562247 0.226758 0.841845
v 0.437247 0.284865 0.791959
v 0.562247 0.681328 0.841845
v 0.562247 0.169610 0.874627
v 0.437247 0.226758 0.841845
v 0.437247 0.681328 0.841845
v 0.562247 0.738476 0.874627
v 0.437247 0.169610 0.874627
v 0.437247 0.738476 0.874627
v 0.437247 0.182149 1.000005
v 0.437247 0.000000 1.000005
v 0.781198 0.391543 1.000005
v 0.953790 0.391543 1.000005
v 0.215115 0.391543 0.999661
v 0.437247 0.908086 1.000005
v 0.562247 0.731443 1.000005
v 0.562970 0.394408 0.999961
v 0.435155 0.518980 0.999961
v 0.434553 0.394590 0.999961
v 0.434553 0.394590 0.877144
v 0.435155 0.518980 0.877144
v 0.562975 0.518928 0.877144
v 0.562975 0.518928 0.999961
v 0.215147 0.182765 0.874611
v 0.215315 0.391543 0.874627
v 0.217800 0.731203 0.874784
v 0.437247 0.595442 0.686517
v 0.781364 0.730974 0.874784
v 0.781198 0.516543 1.000005
v 0.781364 0.730974 1.000005
v 0.437247 0.731443 1.000005
v 0.217800 0.731203 1.000005
v 0.217347 0.516543 1.000005
v 0.045704 0.391543 0.875005
v 0.215147 0.182765 0.999832
v 0.562247 0.182149 1.000005
v 0.781343 0.181962 1.000005
v 0.655036 0.391543 0.739238
v 0.655036 0.516543 0.739238
v 0.562975 0.518928 0.686517
v 0.435155 0.518980 0.686517
v 0.434553 0.394590 0.686517
v 0.562970 0.394408 0.686517
v 0.562975 0.518928 0.625405
v 0.435155 0.518980 0.625405
v 0.434553 0.394590 0.625405
v 0.562970 0.394408 0.625405
vt 0.862988 0.791900
vt 0.862988 0.877437
vt 0.945164 0.877435
vt 0.945164 0.791898
vt 0.054805 0.486569
vt 0.146083 0.411457
vt 0.092931 0.346865
vt 0.001653 0.421977
vt 0.607710 0.748391
vt 0.524057 0.748391
vt 0.524046 0.888105
vt 0.607821 0.888105
vt 0.882298 0.301005
vt 0.798511 0.301003
vt 0.798549 0.444500
vt 0.882298 0.444502
vt 0.756209 0.190632
vt 0.839859 0.190632
vt 0.839859 0.077129
vt 0.756209 0.077129
vt 0.338660 0.786291
vt 0.255010 0.786291
vt 0.255010 0.824535
vt 0.338660 0.824535
vt 0.255010 0.947069
vt 0.338660 0.947070
vt 0.338660 0.863421
vt 0.255010 0.863420
vt 0.755414 0.215066
vt 0.755414 0.301003
vt 0.837603 0.301003
vt 0.837603 0.215066
vt 0.882298 0.301003
vt 0.882298 0.384653
vt 0.965900 0.384653
vt 0.965900 0.301003
vt 0.959290 0.000000
vt 0.959289 0.083650
vt 0.994865 0.083650
vt 0.994865 0.000000
vt 0.862758 0.791898
vt 0.862758 0.753013
vt 0.779108 0.753013
vt 0.779108 0.791898
vt 0.524046 0.010582
vt 0.525831 0.150285
vt 0.672559 0.150567
vt 0.672559 0.000000
vt 0.756209 0.077129
vt 0.672559 0.077129
vt 0.672559 0.190632
vt 0.756209 0.190632
vt 0.255010 0.863420
vt 0.338660 0.863420
vt 0.338660 0.672788
vt 0.255010 0.672788
vt 0.470894 0.035841
vt 0.376771 0.113294
vt 0.429923 0.177886
vt 0.524046 0.100433
vt 0.672559 0.000000
vt 0.672559 0.038886
vt 0.756209 0.038886
vt 0.756209 0.000000
vt 0.037485 0.053161
vt 0.110875 0.142345
vt 0.175467 0.089193
vt 0.102077 0.000008
vt 0.862758 0.714770
vt 0.862758 0.601267
vt 0.779108 0.601267
vt 0.779108 0.714770
vt 0.756209 0.038885
vt 0.839859 0.038885
vt 0.839859 0.000000
vt 0.756209 0.000000
vt 0.651584 0.888418
vt 0.651584 0.971660
vt 0.733751 0.971667
vt 0.733751 0.888425
vt 0.779108 0.913792
vt 0.779108 0.997442
vt 0.849751 0.997479
vt 0.849751 0.913830
vt 0.994626 0.289241
vt 0.994626 0.205592
vt 0.923739 0.205563
vt 0.923739 0.289213
vt 0.606189 0.971434
vt 0.606189 0.888105
vt 0.524046 0.888105
vt 0.524046 0.971434
vt 0.256760 0.322195
vt 0.202435 0.256123
vt 0.266781 0.203177
vt 0.321293 0.269613
vt 0.946627 0.877437
vt 0.862991 0.877437
vt 0.862988 0.961087
vt 0.946625 0.961087
vt 0.923739 0.205544
vt 0.994714 0.205563
vt 0.994714 0.121913
vt 0.923739 0.121894
vt 0.862985 0.913792
vt 0.862988 0.791898
vt 0.779108 0.800289
vt 0.779358 0.913792
vt 0.670954 0.303074
vt 0.524046 0.301003
vt 0.527485 0.447681
vt 0.670954 0.451113
vt 0.350635 0.433708
vt 0.416176 0.381708
vt 0.382568 0.620469
vt 0.347288 0.611174
vt 0.312007 0.601880
vt 0.255010 0.672788
vt 0.798393 0.451113
vt 0.670908 0.452588
vt 0.671484 0.503788
vt 0.742215 0.521560
vt 0.525493 0.292265
vt 0.672085 0.301003
vt 0.672085 0.150567
vt 0.524046 0.152008
vt 0.595377 0.671913
vt 0.629206 0.710407
vt 0.651584 0.601267
vt 0.527285 0.454368
vt 0.524046 0.601267
vt 0.670908 0.598239
vt 0.670908 0.451113
vt 0.652149 0.695511
vt 0.651584 0.746678
vt 0.779108 0.748165
vt 0.722904 0.677745
vt 0.651621 0.748167
vt 0.651584 0.888418
vt 0.735371 0.888416
vt 0.735371 0.748165
vt 0.923739 0.121894
vt 0.840112 0.121896
vt 0.839859 0.235399
vt 0.923739 0.240103
vt 0.426249 0.672794
vt 0.342445 0.672801
vt 0.342457 0.819647
vt 0.426242 0.819647
vt 0.000020 0.675315
vt 0.000000 0.821956
vt 0.083804 0.821949
vt 0.083804 0.675316
vt 0.863011 0.602761
vt 0.862758 0.716264
vt 0.946430 0.716130
vt 0.946430 0.601267
vt 0.524046 0.292915
vt 0.510150 0.936949
vt 0.510151 0.821450
vt 0.426249 0.823446
vt 0.426501 0.936949
vt 0.127524 0.821814
vt 0.211389 0.821814
vt 0.211352 0.675213
vt 0.127555 0.675195
vt 0.839859 0.121894
vt 0.923461 0.121894
vt 0.923714 0.008391
vt 0.839859 0.000000
vt 0.510114 0.821450
vt 0.510114 0.672803
vt 0.426249 0.672794
vt 0.426317 0.821423
vt 0.423621 0.522402
vt 0.489162 0.470403
vt 0.211413 0.821814
vt 0.127777 0.821817
vt 0.127524 0.935320
vt 0.211413 0.937313
vt 0.283703 0.000000
vt 0.426249 0.937856
vt 0.426249 0.819647
vt 0.342394 0.824354
vt 0.342647 0.937856
vt 0.000000 0.233440
vt 0.083883 0.936820
vt 0.083889 0.821956
vt 0.000000 0.823316
vt 0.000250 0.936820
vt 0.278624 0.562994
vt 0.256687 0.524751
vt 0.255010 0.675195
vt 0.255010 0.524751
vt 0.232654 0.562744
vt 0.198852 0.601250
vt 0.127524 0.524751
vt 0.000000 0.526216
vt 0.000586 0.581049
vt 0.071337 0.598827
vt 0.105156 0.637326
vt 0.127524 0.675315
vt 0.798511 0.447722
vt 0.798511 0.301003
vt 0.776139 0.338993
vt 0.742313 0.377495
vt 0.651584 0.748391
vt 0.671545 0.395278
vt 0.670954 0.446266
vt 0.779108 0.601267
vt 0.756731 0.639252
vt 0.524046 0.602756
vt 0.524615 0.654149
vt 0.776027 0.560057
vt 0.798393 0.598044
vt 0.510114 0.672794
vt 0.510114 0.524751
vt 0.487738 0.562739
vt 0.453913 0.601236
vt 0.418532 0.610123
vt 0.383152 0.619010
vt 0.882243 0.451115
vt 0.882242 0.534764
vt 0.965674 0.534764
vt 0.965867 0.451113
vt 0.798466 0.451113
vt 0.798394 0.594765
vt 0.882242 0.594765
vt 0.882242 0.451114
vt 0.239520 0.524751
vt 0.923714 0.000000
vt 0.923714 0.083650
vt 0.382576 0.671322
vt 0.382576 0.672788
vt 0.997829 0.688141
vt 0.946430 0.686511
vt 0.946832 0.769752
vt 0.997829 0.771791
vt 0.945164 0.875557
vt 1.000000 0.877437
vt 1.000000 0.791501
vt 0.945283 0.791907
vt 0.946430 0.686511
vt 0.998746 0.684596
vt 0.998746 0.601267
vt 0.946433 0.602861
vt 0.946661 0.878816
vt 0.946627 0.962466
vt 0.997830 0.962974
vt 0.997830 0.877437
vt 0.776243 0.831494
vt 0.776243 0.748165
vt 0.735371 0.748165
vt 0.735371 0.831494
vt 0.755414 0.215066
vt 0.672171 0.215351
vt 0.672085 0.300888
vt 0.755414 0.301003
vt 0.648706 0.831636
vt 0.648706 0.748394
vt 0.607821 0.748391
vt 0.607821 0.831633
vt 0.124693 0.760852
vt 0.124693 0.675315
vt 0.083804 0.675316
vt 0.083804 0.760853
vt 0.255010 0.761132
vt 0.255010 0.675195
vt 0.214114 0.675196
vt 0.214114 0.761132
vt 0.128126 0.619042
vt 0.127524 0.673755
vn 0.0004 1.0000 0.0000
vn 0.0000 0.0000 1.0000
vn -1.0000 0.0003 -0.0008
vn -1.0000 0.0009 -0.0017
vn -1.0000 0.0006 -0.0014
vn -1.0000 -0.0002 0.0000
vn 0.9996 0.0131 0.0237
vn 0.9996 0.0131 0.0238
vn 1.0000 -0.0008 0.0000
vn 0.0000 -0.0022 -1.0000
vn 0.4976 0.0000 -0.8674
vn 0.0000 -1.0000 -0.0000
vn -0.0014 -1.0000 0.0000
vn 1.0000 0.0000 0.0000
vn 0.9670 0.0000 -0.2548
vn 0.0000 0.6514 -0.7587
vn 0.0115 0.0001 -0.9999
vn 0.0007 0.0112 -0.9999
vn -0.0022 0.0000 -1.0000
vn 0.6514 0.0000 -0.7587
vn 0.0022 0.0000 -1.0000
vn -0.6514 0.0000 -0.7587
vn 0.0000 0.0022 -1.0000
vn 0.0000 -0.6514 -0.7587
vn -1.0000 0.0048 0.0000
vn 0.0000 -0.9670 -0.2548
vn 0.0000 0.9670 -0.2548
vn 0.0000 0.4976 -0.8674
vn -0.0000 -0.0002 1.0000
vn 0.0000 1.0000 0.0000
vn -0.9670 0.0000 -0.2548
vn -0.4976 0.0000 -0.8674
vn -1.0000 -0.0000 0.0000
vn 0.0003 -0.0115 -0.9999
vn -0.0114 0.0006 -0.9999
vn -0.0015 -0.0005 1.0000
vn -0.0006 -0.0014 1.0000
vn 0.0005 -0.0011 1.0000
vn 0.0011 -0.0012 1.0000
vn 0.0000 -0.4976 -0.8674
vn -0.0223 -0.9997 0.0059
vn 1.0000 0.0055 -0.0043
vn 1.0000 0.0084 -0.0007
vn 1.0000 0.0087 -0.0003
vn 1.0000 0.0070 -0.0015
vn 0.0001 0.0112 -0.9999
vn -0.0114 -0.0006 -0.9999
vn -0.0120 0.9998 -0.0139
vn -0.0092 0.9999 -0.0140
vn -0.0114 0.9998 -0.0166
vn -0.0003 -0.0115 -0.9999
vn -0.0003 -0.0114 -0.9999
vn 0.0114 0.0006 -0.9999
vn -0.9997 0.0263 -0.0002
vn -0.9997 0.0244 -0.0020
vn -0.9999 0.0105 0.0006
vn -0.9999 0.0166 -0.0043
vn -0.0002 0.0000 1.0000
vn 0.9996 -0.0135 0.0238
vn 1.0000 0.0007 -0.0000
vn -0.0330 0.9979 0.0560
vn -0.0011 1.0000 0.0000
vn 0.0341 0.9978 0.0560
vn 0.0341 0.9979 0.0560
vn 0.0021 1.0000 -0.0000
vn -0.0011 0.0005 1.0000
vn -0.0019 -0.0004 1.0000
vn -0.0009 -0.0012 1.0000
vn 0.0559 -0.9935 0.0994
vn -0.0009 -1.0000 -0.0000
vn -0.0588 -0.9933 0.0993
vn -0.0028 -1.0000 -0.0000
vn -0.0002 -0.0010 1.0000
vn 0.0003 -0.0038 1.0000
vn -0.0000 -0.0027 1.0000
vn -0.0001 0.0001 1.0000
vn -0.0001 -0.0001 1.0000
vn -0.0153 -0.9997 0.0203
vn -0.0127 -0.9997 0.0221
vn -0.0124 -0.9996 0.0253
vn -0.0140 -0.9998 0.0163
vn -0.0130 -0.9998 0.0131
vn -0.0129 -0.9997 0.0192
vn 1.0000 -0.0021 -0.0058
vn 1.0000 -0.0032 -0.0055
vn 1.0000 -0.0036 -0.0047
vn 1.0000 -0.0024 -0.0039
vn 1.0000 -0.0026 -0.0040
vn 1.0000 -0.0030 -0.0032
vn -0.6663 -0.7189 0.1981
vn -0.9996 -0.0274 0.0002
vn -0.9995 -0.0302 -0.0011
vn -0.9998 -0.0204 -0.0054
vn -0.9998 -0.0130 -0.0177
vn -0.9997 -0.0117 -0.0205
vn -0.9997 -0.0122 -0.0234
vn -0.9998 -0.0129 -0.0150
vn -0.9998 -0.0099 -0.0151
vn -0.9998 -0.0121 -0.0179
vn 0.0133 -0.9995 0.0270
vn 0.0136 -0.9996 0.0237
vn 0.0164 -0.9996 0.0217
vn 0.0138 -0.9997 0.0206
vn 0.0139 -0.9998 0.0142
vn 0.0150 -0.9997 0.0175
vn -0.0121 0.9998 -0.0165
vn -0.0109 0.9998 -0.0189
vn -0.0114 0.9997 -0.0216
vn 0.1930 -0.9812 -0.0042
vn 0.0297 -0.9996 0.0035
vn 0.6132 -0.6642 -0.4276
vn 0.0241 -0.9997 0.0063
vn -0.9998 0.0097 -0.0186
vn -0.9998 0.0093 -0.0163
vn -0.9998 0.0103 -0.0143
vn -0.9999 0.0097 -0.0142
vn -0.9999 0.0081 -0.0120
vn -0.9999 0.0103 -0.0120
vn -0.0310 0.9995 0.0084
vn -0.0258 0.9997 -0.0002
vn -0.0292 0.9996 -0.0010
vn -0.0192 0.9998 -0.0051
vn 1.0000 0.0037 -0.0049
vn 1.0000 0.0033 -0.0057
vn 0.9999 0.0060 -0.0088
vn 1.0000 0.0031 -0.0032
vn 1.0000 0.0028 -0.0042
vn 1.0000 0.0047 -0.0081
vn 0.0110 0.9997 -0.0210
vn 0.0106 0.9998 -0.0184
vn 0.0117 0.9998 -0.0160
vn 0.0110 0.9998 -0.0161
vn 0.0089 0.9999 -0.0136
vn 0.0116 0.9998 -0.0135
vn 0.0227 0.9997 -0.0052
vn 0.0186 0.9998 -0.0049
vn 0.0224 0.9997 -0.0034
vn 0.0000 0.0002 1.0000
vn 0.0009 -0.0007 1.0000
vn -0.9998 0.0000 -0.0179
vn -0.9998 0.0179 0.0000
vn -0.9998 0.0116 0.0162
vn -1.0000 0.0021 -0.0000
vn 0.0001 -0.0001 1.0000
vn -0.0002 0.0010 1.0000
vn 0.0340 0.9994 -0.0022
vn 0.0323 0.9995 0.0037
vn 0.0305 0.9995 0.0006
vn -0.0364 -0.9993 0.0012
vn -0.0366 -0.9993 0.0000
vn 0.0020 0.0032 -1.0000
vn -0.0022 -0.0001 -1.0000
vn -0.0004 0.0027 -1.0000
vn -0.0076 0.1605 -0.9870
vn -0.0030 0.0020 -1.0000
vn 0.0005 -0.0027 -1.0000
vn 0.0000 0.0000 -1.0000
vn 0.0010 0.0009 -1.0000
vn 0.0005 -0.0000 -1.0000
vn -0.0029 0.0030 -1.0000
vn -0.0037 -0.0026 -1.0000
vn 0.0009 -0.0006 -1.0000
vn -0.0007 0.0000 -1.0000
vn 0.0023 0.0000 -1.0000
vn 1.0000 -0.0007 -0.0000
vn -1.0000 0.0053 -0.0027
vn -1.0000 0.0026 -0.0000
vn 0.0004 1.0000 -0.0023
vn 0.0004 1.0000 -0.0007
vn 0.0014 -1.0000 -0.0004
vn 1.0000 -0.0084 -0.0000
vn 1.0000 -0.0073 -0.0007
vn 1.0000 -0.0064 0.0002
vn 1.0000 -0.0066 -0.0014
usemtl Material.001
f 57/1/1 56/2/1 53/3/1 58/4/1
f 50/5/2 66/6/2 51/7/2 28/8/2
f 49/9/3 60/10/4 59/11/5 70/12/6
f 64/13/7 17/14/8 63/15/9 65/16/9
f 26/17/10 25/18/10 43/19/10 39/20/10
f 17/21/11 21/22/11 18/23/11 13/24/11
f 24/25/12 46/26/12 25/27/12 26/28/12
f 55/29/13 23/30/13 52/31/13 54/32/13
f 1/33/14 48/34/14 2/35/14 3/36/14
f 74/37/15 73/38/15 10/39/15 7/40/15
f 34/41/16 41/42/16 38/43/16 35/44/16
f 59/45/17 60/46/17 55/47/18 43/48/18
f 20/49/19 60/50/19 69/51/19 4/52/19
f 13/24/20 18/23/20 14/53/20 9/54/20
f 3/55/21 2/56/21 21/22/21 17/21/21
f 24/57/2 71/58/2 45/59/2 46/60/2
f 15/61/22 19/62/22 16/63/22 12/64/22
f 1/65/2 64/66/2 47/67/2 48/68/2
f 44/69/23 27/70/23 29/71/23 42/72/23
f 36/73/24 40/74/24 37/75/24 32/76/24
f 56/77/25 55/78/25 54/79/25 53/80/25
f 32/81/26 37/82/26 33/83/26 30/84/26
f 31/85/27 62/86/27 34/87/27 35/88/27
f 23/89/14 57/90/14 58/91/14 52/92/14
f 41/42/28 44/69/28 42/72/28 38/43/28
f 51/7/29 66/6/29 53/93/29 58/94/29
f 52/95/2 58/94/2 53/93/2 54/96/2
f 27/97/30 50/98/30 28/99/30 29/100/30
f 11/101/31 15/102/31 12/103/31 8/104/31
f 19/62/32 60/50/32 20/49/32 16/63/32
f 46/105/33 45/106/33 43/107/33 25/108/33
f 57/109/34 42/110/34 63/111/35 17/112/35
f 54/96/36 53/93/37 68/113/38 49/114/39
f 39/20/40 43/19/40 40/74/40 36/73/40
f 10/115/41 73/116/41 14/117/41 23/118/41
f 57/119/42 75/120/43 31/121/44 35/122/45
f 22/123/46 39/124/46 23/125/47 21/126/47
f 12/127/48 16/128/49 56/129/50
f 61/130/51 44/131/52 56/132/53 20/133/53
f 62/134/54 76/135/55 56/136/56 34/137/57
f 47/67/58 64/66/58 58/94/58 52/95/58
f 22/138/59 21/139/59 47/140/60 72/141/60
f 50/142/33 27/143/33 44/144/33 66/145/33
f 66/146/61 44/147/61 61/148/62 67/149/62
f 63/150/63 42/151/64 51/152/65 65/153/65
f 69/154/12 60/155/12 49/156/12 5/157/12
f 70/158/66 45/59/66 54/96/67 49/114/68
f 48/159/12 47/160/12 21/161/12 2/162/12
f 71/163/69 39/164/69 22/165/70 72/166/70
f 24/167/14 26/168/14 39/169/14 71/170/14
f 59/171/71 43/172/71 45/173/72 70/174/72
f 49/114/73 68/113/74 6/175/75 5/176/75
f 1/177/30 3/178/30 17/179/30 64/180/30
f 71/58/76 72/181/76 47/67/76 52/95/76
f 28/182/14 51/183/14 42/184/14 29/185/14
f 64/66/77 65/186/77 51/7/77 58/94/77
f 6/187/30 68/188/30 20/189/30 4/190/30
f 18/191/78 21/192/79 23/118/80
f 14/117/81 18/191/82 23/118/83
f 23/193/84 39/194/85 36/195/86
f 23/193/87 36/195/88 32/196/89
f 55/197/90 77/198/91 33/199/92 37/200/93
f 40/201/94 43/202/95 55/197/96
f 37/200/97 40/201/98 55/197/99
f 55/203/100 60/204/101 19/205/102
f 55/203/103 19/205/104 15/206/105
f 16/128/106 20/207/107 56/129/108
f 11/208/109 77/209/110 55/203/111 15/206/112
f 56/136/113 44/210/114 41/211/115
f 56/136/116 41/211/117 34/137/118
f 56/129/119 76/212/120 8/213/121 12/127/122
f 38/214/123 42/215/124 57/119/125
f 35/122/126 38/214/127 57/119/128
f 57/216/129 17/217/130 13/218/131
f 57/216/132 13/218/133 9/219/134
f 57/216/135 9/219/136 74/220/136 7/221/137
f 52/95/138 54/96/139 45/59/138 71/58/138
f 4/222/140 69/223/140 5/224/141 6/225/141
f 61/226/142 20/227/142 68/228/143 67/229/143
f 67/230/144 68/113/145 53/93/144 66/6/144
f 9/231/15 14/232/15 73/38/15 74/37/15
f 57/216/146 7/221/147 75/233/148
f 23/118/149 78/234/150 10/115/150
f 8/235/151 76/236/152 77/237/153 11/238/154
f 33/239/155 77/240/156 78/241/157 30/242/158
f 10/243/157 78/244/157 75/245/159 7/246/160
f 62/247/161 31/248/162 75/249/163 76/250/164
f 75/251/165 78/252/14 82/253/14 79/254/14
f 81/255/157 80/256/157 79/257/157 82/258/157
f 77/259/166 76/260/167 80/261/25 81/262/25
f 76/263/168 75/264/169 79/265/1 80/266/1
f 78/267/13 77/268/170 81/269/13 82/270/13
f 30/271/171 78/272/172 23/193/173 32/196/174
